<?xml version="1.0" encoding="utf-8"?>
<!-- Generator: Adobe Illustrator 24.0.0, SVG Export Plug-In . SVG Version: 6.00 Build 0)  -->
<svg version="1.1" id="Capa_1" xmlns="http://www.w3.org/2000/svg" xmlns:xlink="http://www.w3.org/1999/xlink" x="0px" y="0px"
	 viewBox="0 0 512 8192" style="enable-background:new 0 0 512 8192;" xml:space="preserve">
<style type="text/css">
	.st0{fill:#00CC1D;}
	.st1{fill:#12FF12;}
	.st2{fill:#029B14;}
</style>
<path class="st0" d="M64.9,272.8c-6.8,12.4-10.6,26.6-10.6,41.6c0,48,38.8,86.8,86.8,86.8c4.8,0,9.4-0.4,14-1.2
	c7.1,17.6,24.4,30,44.5,30c16.7,0,31.4-8.5,40-21.4c11.3,10.4,26.3,16.8,42.9,16.8c24.9,0,46.4-14.4,56.7-35.4
	c6,1.2,12,1.8,18.3,1.8c51.2,0,92.8-41.5,92.8-92.8c0-6-0.6-12-1.7-17.7c12.5-8.6,20.8-23.1,20.8-39.6c0-14.3-6.2-27.1-16.1-35.9
	c4.4-7.3,6.9-15.7,6.9-24.9c0-18-9.9-33.6-24.4-41.9c0-1.1,0.1-2.2,0.1-3.4c0-51.2-41.5-92.8-92.8-92.8c-12.4,0-24.3,2.4-35,6.8
	c-7.6-5.2-16.9-8.2-26.8-8.2c-5,0-9.7,0.7-14.2,2.1c-8.8-11.4-22.8-18.9-38.5-18.9c-15.6,0-29.6,7.5-38.3,19.1
	c-9-4.2-18.9-6.6-29.4-6.6c-38.1,0-69.1,30.9-69.1,69.1c0,3.5,0.3,6.8,0.7,10.1c-16.4,4.8-28.4,19.9-28.4,37.9
	c0,12.5,5.9,23.7,15,30.9c-21.1,5.1-36.7,24.1-36.7,46.7C42.5,249.2,51.5,264.3,64.9,272.8z M225.6,334.9c0,0,0.1,0.1,0.2,0.1
	c-0.1,0.3-0.2,0.5-0.4,0.7C225.4,335.6,225.5,335.2,225.6,334.9z M453.4,661.2c4.4-7.3,6.9-15.7,6.9-24.9c0-18-9.9-33.6-24.4-41.9
	c0-1.1,0.1-2.2,0.1-3.4c0-51.2-41.5-92.8-92.8-92.8c-12.4,0-24.3,2.4-35,6.8c-7.6-5.2-16.9-8.2-26.8-8.2c-5,0-9.7,0.7-14.2,2.1
	c-8.8-11.6-22.8-19.2-38.5-19.2c-15.6,0-29.6,7.5-38.3,19.1c-9-4.2-18.9-6.6-29.4-6.6c-38.1,0-69.1,30.9-69.1,69.1
	c0,3.5,0.3,6.8,0.7,10.1c-16.4,4.8-28.4,19.9-28.4,37.9c0,12.5,5.9,23.7,15,30.9c-21.1,5.1-36.7,24.1-36.7,46.7
	c0,17.2,9,32.2,22.4,40.6c-6.8,12.4-10.6,26.6-10.6,41.6c0,48,38.8,86.8,86.8,86.8c4.8,0,9.4-0.4,14-1.2c7.1,17.6,24.4,30,44.5,30
	c16.7,0,31.4-8.5,40-21.4c11.3,10.4,26.3,16.8,42.9,16.8c24.9,0,46.4-14.4,56.7-35.4c6,1.2,12,1.8,18.3,1.8
	c51.2,0,92.8-41.5,92.8-92.8c0-6-0.6-12-1.7-17.7c12.5-8.6,20.8-23.1,20.8-39.6C469.5,682.8,463.3,670,453.4,661.2z M225.4,790.9
	c0.1-0.3,0.2-0.5,0.2-0.8c0,0,0.1,0.1,0.2,0.1C225.6,790.4,225.5,790.7,225.4,790.9z M453.4,1116.4c4.4-7.3,6.9-15.7,6.9-24.9
	c0-18-9.9-33.6-24.4-41.9c0-1.1,0.1-2.2,0.1-3.4c0-51.2-41.5-92.8-92.8-92.8c-12.4,0-24.3,2.4-35,6.8c-7.6-5.2-16.9-8.2-26.8-8.2
	c-5,0-9.7,0.7-14.2,2.1c-8.8-11.6-22.8-19.2-38.5-19.2c-15.6,0-29.6,7.5-38.3,19.1c-9-4.2-18.9-6.6-29.4-6.6
	c-38.1,0-69.1,30.9-69.1,69.1c0,3.5,0.3,6.8,0.7,10.1c-16.4,4.8-28.4,19.9-28.4,37.9c0,12.5,5.9,23.7,15,30.9
	c-21.1,5.1-36.7,24.1-36.7,46.7c0,17.2,9,32.2,22.4,40.6c-6.8,12.4-10.6,26.6-10.6,41.6c0,48,38.8,86.8,86.8,86.8
	c4.8,0,9.4-0.4,14-1.2c7.1,17.6,24.4,30,44.5,30c16.7,0,31.4-8.5,40-21.4c11.3,10.4,26.3,16.8,42.9,16.8c24.9,0,46.4-14.4,56.7-35.4
	c6,1.2,12,1.8,18.3,1.8c51.2,0,92.8-41.5,92.8-92.8c0-6-0.6-12-1.7-17.7c12.5-8.6,20.8-23.1,20.8-39.6
	C469.5,1138,463.3,1125.2,453.4,1116.4z M225.4,1246c0.1-0.3,0.2-0.5,0.2-0.8c0,0,0.1,0.1,0.2,0.1
	C225.6,1245.5,225.5,1245.8,225.4,1246z M453.4,1571.5c4.4-7.3,6.9-15.7,6.9-24.9c0-18-9.9-33.6-24.4-41.9c0-1.1,0.1-2.2,0.1-3.4
	c0-51.2-41.5-92.8-92.8-92.8c-12.4,0-24.3,2.4-35,6.8c-7.6-5.2-16.9-8.2-26.8-8.2c-5,0-9.7,0.7-14.2,2.1
	c-8.8-11.6-22.8-19.2-38.5-19.2c-15.6,0-29.6,7.5-38.3,19.1c-9-4.2-18.9-6.6-29.4-6.6c-38.1,0-69.1,30.9-69.1,69.1
	c0,3.5,0.3,6.8,0.7,10.1c-16.4,4.8-28.4,19.9-28.4,37.9c0,12.5,5.9,23.7,15,30.9c-21.1,5.1-36.7,24.1-36.7,46.7
	c0,17.2,9,32.2,22.4,40.6c-6.8,12.4-10.6,26.6-10.6,41.6c0,48,38.8,86.8,86.8,86.8c4.8,0,9.4-0.4,14-1.2c7.1,17.6,24.4,30,44.5,30
	c16.7,0,31.4-8.5,40-21.4c11.3,10.4,26.3,16.8,42.9,16.8c24.9,0,46.4-14.4,56.7-35.4c6,1.2,12,1.8,18.3,1.8
	c51.2,0,92.8-41.5,92.8-92.8c0-6-0.6-12-1.7-17.7c12.5-8.6,20.8-23.1,20.8-39.6C469.5,1593.1,463.3,1580.3,453.4,1571.5z
	 M225.4,1701.2c0.1-0.3,0.2-0.5,0.2-0.8c0,0,0.1,0.1,0.2,0.1C225.6,1700.6,225.5,1700.9,225.4,1701.2z M453.4,2026.6
	c4.4-7.3,6.9-15.7,6.9-24.9c0-18-9.9-33.6-24.4-41.9c0-1.1,0.1-2.2,0.1-3.4c0-51.2-41.5-92.8-92.8-92.8c-12.4,0-24.3,2.4-35,6.8
	c-7.6-5.2-16.9-8.2-26.8-8.2c-5,0-9.7,0.7-14.2,2.1c-8.8-11.6-22.8-19.2-38.5-19.2c-15.6,0-29.6,7.5-38.3,19.1
	c-9-4.2-18.9-6.6-29.4-6.6c-38.1,0-69.1,30.9-69.1,69.1c0,3.5,0.3,6.8,0.7,10.1c-16.4,4.8-28.4,19.9-28.4,37.9
	c0,12.5,5.9,23.7,15,30.9c-21.1,5.1-36.7,24.1-36.7,46.7c0,17.2,9,32.2,22.4,40.6c-6.8,12.4-10.6,26.6-10.6,41.6
	c0,48,38.8,86.8,86.8,86.8c4.8,0,9.4-0.4,14-1.2c7.1,17.6,24.4,30,44.5,30c16.7,0,31.4-8.5,40-21.4c11.3,10.4,26.3,16.8,42.9,16.8
	c24.9,0,46.4-14.4,56.7-35.4c6,1.2,12,1.8,18.3,1.8c51.2,0,92.8-41.5,92.8-92.8c0-6-0.6-12-1.7-17.7c12.5-8.6,20.8-23.1,20.8-39.6
	C469.5,2048.2,463.3,2035.4,453.4,2026.6z M225.4,2156.3c0.1-0.3,0.2-0.5,0.2-0.8c0,0,0.1,0.1,0.2,0.1
	C225.6,2155.7,225.5,2156,225.4,2156.3z M453.4,2481.7c4.4-7.3,6.9-15.7,6.9-24.9c0-18-9.9-33.6-24.4-41.9c0-1.1,0.1-2.2,0.1-3.4
	c0-51.2-41.5-92.8-92.8-92.8c-12.4,0-24.3,2.4-35,6.8c-7.6-5.2-16.9-8.2-26.8-8.2c-5,0-9.7,0.7-14.2,2.1
	c-8.8-11.6-22.8-19.2-38.5-19.2c-15.6,0-29.6,7.5-38.3,19.1c-9-4.2-18.9-6.6-29.4-6.6c-38.1,0-69.1,30.9-69.1,69.1
	c0,3.5,0.3,6.8,0.7,10.1c-16.4,4.8-28.4,19.9-28.4,37.9c0,12.5,5.9,23.7,15,30.9c-21.1,5.1-36.7,24.1-36.7,46.7
	c0,17.2,9,32.2,22.4,40.6c-6.8,12.4-10.6,26.6-10.6,41.6c0,48,38.8,86.8,86.8,86.8c4.8,0,9.4-0.4,14-1.2c7.1,17.6,24.4,30,44.5,30
	c16.7,0,31.4-8.5,40-21.4c11.3,10.4,26.3,16.8,42.9,16.8c24.9,0,46.4-14.4,56.7-35.4c6,1.2,12,1.8,18.3,1.8
	c51.2,0,92.8-41.5,92.8-92.8c0-6-0.6-12-1.7-17.7c12.5-8.6,20.8-23.1,20.8-39.6C469.5,2503.3,463.3,2490.5,453.4,2481.7z
	 M225.4,2611.4c0.1-0.3,0.2-0.5,0.2-0.8c0,0,0.1,0.1,0.2,0.1C225.6,2610.8,225.5,2611.1,225.4,2611.4z M453.4,2936.8
	c4.4-7.3,6.9-15.7,6.9-24.9c0-18-9.9-33.6-24.4-41.9c0-1.1,0.1-2.2,0.1-3.4c0-51.2-41.5-92.8-92.8-92.8c-12.4,0-24.3,2.4-35,6.8
	c-7.6-5.2-16.9-8.2-26.8-8.2c-5,0-9.7,0.7-14.2,2.1c-8.8-11.6-22.8-19.2-38.5-19.2c-15.6,0-29.6,7.5-38.3,19.1
	c-9-4.2-18.9-6.6-29.4-6.6c-38.1,0-69.1,30.9-69.1,69.1c0,3.5,0.3,6.8,0.7,10.1c-16.4,4.8-28.4,19.9-28.4,37.9
	c0,12.5,5.9,23.7,15,30.9c-21.1,5.1-36.7,24.1-36.7,46.7c0,17.2,9,32.2,22.4,40.6c-6.8,12.4-10.6,26.6-10.6,41.6
	c0,48,38.8,86.8,86.8,86.8c4.8,0,9.4-0.4,14-1.2c7.1,17.6,24.4,30,44.5,30c16.7,0,31.4-8.5,40-21.4c11.3,10.4,26.3,16.8,42.9,16.8
	c24.9,0,46.4-14.4,56.7-35.4c6,1.2,12,1.8,18.3,1.8c51.2,0,92.8-41.5,92.8-92.8c0-6-0.6-12-1.7-17.7c12.5-8.6,20.8-23.1,20.8-39.6
	C469.5,2958.4,463.3,2945.6,453.4,2936.8z M225.4,3066.5c0.1-0.3,0.2-0.5,0.2-0.8c0,0,0.1,0.1,0.2,0.1
	C225.6,3066,225.5,3066.2,225.4,3066.5z M453.4,3391.9c4.4-7.3,6.9-15.7,6.9-24.9c0-18-9.9-33.6-24.4-41.9c0-1.1,0.1-2.2,0.1-3.4
	c0-51.2-41.5-92.8-92.8-92.8c-12.4,0-24.3,2.4-35,6.8c-7.6-5.2-16.9-8.2-26.8-8.2c-5,0-9.7,0.7-14.2,2.1
	c-8.8-11.6-22.8-19.2-38.5-19.2c-15.6,0-29.6,7.5-38.3,19.1c-9-4.2-18.9-6.6-29.4-6.6c-38.1,0-69.1,30.9-69.1,69.1
	c0,3.5,0.3,6.8,0.7,10.1c-16.4,4.8-28.4,19.9-28.4,37.9c0,12.5,5.9,23.7,15,30.9c-21.1,5.1-36.7,24.1-36.7,46.7
	c0,17.2,9,32.2,22.4,40.6c-6.8,12.4-10.6,26.6-10.6,41.6c0,48,38.8,86.8,86.8,86.8c4.8,0,9.4-0.4,14-1.2c7.1,17.6,24.4,30,44.5,30
	c16.7,0,31.4-8.5,40-21.4c11.3,10.4,26.3,16.8,42.9,16.8c24.9,0,46.4-14.4,56.7-35.4c6,1.2,12,1.8,18.3,1.8
	c51.2,0,92.8-41.5,92.8-92.8c0-6-0.6-12-1.7-17.7c12.5-8.6,20.8-23.1,20.8-39.6C469.5,3413.5,463.3,3400.7,453.4,3391.9z
	 M225.4,3521.6c0.1-0.3,0.2-0.5,0.2-0.8c0,0,0.1,0.1,0.2,0.1C225.6,3521.1,225.5,3521.3,225.4,3521.6z M453.4,3847
	c4.4-7.3,6.9-15.7,6.9-24.9c0-18-9.9-33.6-24.4-41.9c0-1.1,0.1-2.2,0.1-3.4c0-51.2-41.5-92.8-92.8-92.8c-12.4,0-24.3,2.4-35,6.8
	c-7.6-5.2-16.9-8.2-26.8-8.2c-5,0-9.7,0.7-14.2,2.1c-8.8-11.6-22.8-19.2-38.5-19.2c-15.6,0-29.6,7.5-38.3,19.1
	c-9-4.2-18.9-6.6-29.4-6.6c-38.1,0-69.1,30.9-69.1,69.1c0,3.5,0.3,6.8,0.7,10.1c-16.4,4.8-28.4,19.9-28.4,37.9
	c0,12.5,5.9,23.7,15,30.9c-21.1,5.1-36.7,24.1-36.7,46.7c0,17.2,9,32.2,22.4,40.6c-6.8,12.4-10.6,26.6-10.6,41.6
	c0,48,38.8,86.8,86.8,86.8c4.8,0,9.4-0.4,14-1.2c7.1,17.6,24.4,30,44.5,30c16.7,0,31.4-8.5,40-21.4c11.3,10.4,26.3,16.8,42.9,16.8
	c24.9,0,46.4-14.4,56.7-35.4c6,1.2,12,1.8,18.3,1.8c51.2,0,92.8-41.5,92.8-92.8c0-6-0.6-12-1.7-17.7c12.5-8.6,20.8-23.1,20.8-39.6
	C469.5,3868.6,463.3,3855.8,453.4,3847z M225.4,3976.7c0.1-0.3,0.2-0.5,0.2-0.8c0,0,0.1,0.1,0.2,0.1
	C225.6,3976.2,225.5,3976.4,225.4,3976.7z M453.4,4302.1c4.4-7.3,6.9-15.7,6.9-24.9c0-18-9.9-33.6-24.4-41.9c0-1.1,0.1-2.2,0.1-3.4
	c0-51.2-41.5-92.8-92.8-92.8c-12.4,0-24.3,2.4-35,6.8c-7.6-5.2-16.9-8.2-26.8-8.2c-5,0-9.7,0.7-14.2,2.1
	c-8.8-11.6-22.8-19.2-38.5-19.2c-15.6,0-29.6,7.5-38.3,19.1c-9-4.2-18.9-6.6-29.4-6.6c-38.1,0-69.1,30.9-69.1,69.1
	c0,3.5,0.3,6.8,0.7,10.1c-16.4,4.8-28.4,19.9-28.4,37.9c0,12.5,5.9,23.7,15,30.9c-21.1,5.1-36.7,24.1-36.7,46.7
	c0,17.2,9,32.2,22.4,40.6c-6.8,12.4-10.6,26.6-10.6,41.6c0,48,38.8,86.8,86.8,86.8c4.8,0,9.4-0.4,14-1.2c7.1,17.6,24.4,30,44.5,30
	c16.7,0,31.4-8.5,40-21.4c11.3,10.4,26.3,16.8,42.9,16.8c24.9,0,46.4-14.4,56.7-35.4c6,1.2,12,1.8,18.3,1.8
	c51.2,0,92.8-41.5,92.8-92.8c0-6-0.6-12-1.7-17.7c12.5-8.6,20.8-23.1,20.8-39.6C469.5,4323.7,463.3,4310.9,453.4,4302.1z
	 M225.4,4431.8c0.1-0.3,0.2-0.5,0.2-0.8c0,0,0.1,0.1,0.2,0.1C225.6,4431.3,225.5,4431.6,225.4,4431.8z M453.4,4757.2
	c4.4-7.3,6.9-15.7,6.9-24.9c0-18-9.9-33.6-24.4-41.9c0-1.1,0.1-2.2,0.1-3.4c0-51.2-41.5-92.8-92.8-92.8c-12.4,0-24.3,2.4-35,6.8
	c-7.6-5.2-16.9-8.2-26.8-8.2c-5,0-9.7,0.7-14.2,2.1c-8.8-11.6-22.8-19.2-38.5-19.2c-15.6,0-29.6,7.5-38.3,19.1
	c-9-4.2-18.9-6.6-29.4-6.6c-38.1,0-69.1,30.9-69.1,69.1c0,3.5,0.3,6.8,0.7,10.1c-16.4,4.8-28.4,19.9-28.4,37.9
	c0,12.5,5.9,23.7,15,30.9c-21.1,5.1-36.7,24.1-36.7,46.7c0,17.2,9,32.2,22.4,40.6c-6.8,12.4-10.6,26.6-10.6,41.6
	c0,48,38.8,86.8,86.8,86.8c4.8,0,9.4-0.4,14-1.2c7.1,17.6,24.4,30,44.5,30c16.7,0,31.4-8.5,40-21.4c11.3,10.4,26.3,16.8,42.9,16.8
	c24.9,0,46.4-14.4,56.7-35.4c6,1.2,12,1.8,18.3,1.8c51.2,0,92.8-41.5,92.8-92.8c0-6-0.6-12-1.7-17.7c12.5-8.6,20.8-23.1,20.8-39.6
	C469.5,4778.8,463.3,4766,453.4,4757.2z M225.4,4886.9c0.1-0.3,0.2-0.5,0.2-0.8c0,0,0.1,0.1,0.2,0.1
	C225.6,4886.4,225.5,4886.7,225.4,4886.9z M453.4,5212.4c4.4-7.3,6.9-15.7,6.9-24.9c0-18-9.9-33.6-24.4-41.9c0-1.1,0.1-2.2,0.1-3.4
	c0-51.2-41.5-92.8-92.8-92.8c-12.4,0-24.3,2.4-35,6.8c-7.6-5.2-16.9-8.2-26.8-8.2c-5,0-9.7,0.7-14.2,2.1
	c-8.8-11.6-22.8-19.2-38.5-19.2c-15.6,0-29.6,7.5-38.3,19.1c-9-4.2-18.9-6.6-29.4-6.6c-38.1,0-69.1,30.9-69.1,69.1
	c0,3.5,0.3,6.8,0.7,10.1c-16.4,4.8-28.4,19.9-28.4,37.9c0,12.5,5.9,23.7,15,30.9c-21.1,5.1-36.7,24.1-36.7,46.7
	c0,17.2,9,32.2,22.4,40.6c-6.8,12.4-10.6,26.6-10.6,41.6c0,48,38.8,86.8,86.8,86.8c4.8,0,9.4-0.4,14-1.2c7.1,17.6,24.4,30,44.5,30
	c16.7,0,31.4-8.5,40-21.4c11.3,10.4,26.3,16.8,42.9,16.8c24.9,0,46.4-14.4,56.7-35.4c6,1.2,12,1.8,18.3,1.8
	c51.2,0,92.8-41.5,92.8-92.8c0-6-0.6-12-1.7-17.7c12.5-8.6,20.8-23.1,20.8-39.6C469.5,5234,463.3,5221.2,453.4,5212.4z M225.4,5342
	c0.1-0.3,0.2-0.5,0.2-0.8c0,0,0.1,0.1,0.2,0.1C225.6,5341.5,225.5,5341.8,225.4,5342z M453.4,5667.5c4.4-7.3,6.9-15.7,6.9-24.9
	c0-18-9.9-33.6-24.4-41.9c0-1.1,0.1-2.2,0.1-3.4c0-51.2-41.5-92.8-92.8-92.8c-12.4,0-24.3,2.4-35,6.8c-7.6-5.2-16.9-8.2-26.8-8.2
	c-5,0-9.7,0.7-14.2,2.1c-8.8-11.6-22.8-19.2-38.5-19.2c-15.6,0-29.6,7.5-38.3,19.1c-9-4.2-18.9-6.6-29.4-6.6
	c-38.1,0-69.1,30.9-69.1,69.1c0,3.5,0.3,6.8,0.7,10.1c-16.4,4.8-28.4,19.9-28.4,37.9c0,12.5,5.9,23.7,15,30.9
	c-21.1,5.1-36.7,24.1-36.7,46.7c0,17.2,9,32.2,22.4,40.6c-6.8,12.4-10.6,26.6-10.6,41.6c0,48,38.8,86.8,86.8,86.8
	c4.8,0,9.4-0.4,14-1.2c7.1,17.6,24.4,30,44.5,30c16.7,0,31.4-8.5,40-21.4c11.3,10.4,26.3,16.8,42.9,16.8c24.9,0,46.4-14.4,56.7-35.4
	c6,1.2,12,1.8,18.3,1.8c51.2,0,92.8-41.5,92.8-92.8c0-6-0.6-12-1.7-17.7c12.5-8.6,20.8-23.1,20.8-39.6
	C469.5,5689.1,463.3,5676.3,453.4,5667.5z M225.4,5797.2c0.1-0.3,0.2-0.5,0.2-0.8c0,0,0.1,0.1,0.2,0.1
	C225.6,5796.6,225.5,5796.9,225.4,5797.2z M453.4,6122.6c4.4-7.3,6.9-15.7,6.9-24.9c0-18-9.9-33.6-24.4-41.9c0-1.1,0.1-2.2,0.1-3.4
	c0-51.2-41.5-92.8-92.8-92.8c-12.4,0-24.3,2.4-35,6.8c-7.6-5.2-16.9-8.2-26.8-8.2c-5,0-9.7,0.7-14.2,2.1
	c-8.8-11.6-22.8-19.2-38.5-19.2c-15.6,0-29.6,7.5-38.3,19.1c-9-4.2-18.9-6.6-29.4-6.6c-38.1,0-69.1,30.9-69.1,69.1
	c0,3.5,0.3,6.8,0.7,10.1c-16.4,4.8-28.4,19.9-28.4,37.9c0,12.5,5.9,23.7,15,30.9c-21.1,5.1-36.7,24.1-36.7,46.7
	c0,17.2,9,32.2,22.4,40.6c-6.8,12.4-10.6,26.6-10.6,41.6c0,48,38.8,86.8,86.8,86.8c4.8,0,9.4-0.4,14-1.2c7.1,17.6,24.4,30,44.5,30
	c16.7,0,31.4-8.5,40-21.4c11.3,10.4,26.3,16.8,42.9,16.8c24.9,0,46.4-14.4,56.7-35.4c6,1.2,12,1.8,18.3,1.8
	c51.2,0,92.8-41.5,92.8-92.8c0-6-0.6-12-1.7-17.7c12.5-8.6,20.8-23.1,20.8-39.6C469.5,6144.2,463.3,6131.4,453.4,6122.6z
	 M225.4,6252.3c0.1-0.3,0.2-0.5,0.2-0.8c0,0,0.1,0.1,0.2,0.1C225.6,6251.7,225.5,6252,225.4,6252.3z M453.4,6577.7
	c4.4-7.3,6.9-15.7,6.9-24.9c0-18-9.9-33.6-24.4-41.9c0-1.1,0.1-2.2,0.1-3.4c0-51.2-41.5-92.8-92.8-92.8c-12.4,0-24.3,2.4-35,6.8
	c-7.6-5.2-16.9-8.2-26.8-8.2c-5,0-9.7,0.7-14.2,2.1c-8.8-11.6-22.8-19.2-38.5-19.2c-15.6,0-29.6,7.5-38.3,19.1
	c-9-4.2-18.9-6.6-29.4-6.6c-38.1,0-69.1,30.9-69.1,69.1c0,3.5,0.3,6.8,0.7,10.1c-16.4,4.8-28.4,19.9-28.4,37.9
	c0,12.5,5.9,23.7,15,30.9c-21.1,5.1-36.7,24.1-36.7,46.7c0,17.2,9,32.2,22.4,40.6c-6.8,12.4-10.6,26.6-10.6,41.6
	c0,48,38.8,86.8,86.8,86.8c4.8,0,9.4-0.4,14-1.2c7.1,17.6,24.4,30,44.5,30c16.7,0,31.4-8.5,40-21.4c11.3,10.4,26.3,16.8,42.9,16.8
	c24.9,0,46.4-14.4,56.7-35.4c6,1.2,12,1.8,18.3,1.8c51.2,0,92.8-41.5,92.8-92.8c0-6-0.6-12-1.7-17.7c12.5-8.6,20.8-23.1,20.8-39.6
	C469.5,6599.3,463.3,6586.5,453.4,6577.7z M225.4,6707.4c0.1-0.3,0.2-0.5,0.2-0.8c0,0,0.1,0.1,0.2,0.1
	C225.6,6706.8,225.5,6707.1,225.4,6707.4z M453.4,7032.8c4.4-7.3,6.9-15.7,6.9-24.9c0-18-9.9-33.6-24.4-41.9c0-1.1,0.1-2.2,0.1-3.4
	c0-51.2-41.5-92.8-92.8-92.8c-12.4,0-24.3,2.4-35,6.8c-7.6-5.2-16.9-8.2-26.8-8.2c-5,0-9.7,0.7-14.2,2.1
	c-8.8-11.6-22.8-19.2-38.5-19.2c-15.6,0-29.6,7.5-38.3,19.1c-9-4.2-18.9-6.6-29.4-6.6c-38.1,0-69.1,30.9-69.1,69.1
	c0,3.5,0.3,6.8,0.7,10.1c-16.4,4.8-28.4,19.9-28.4,37.9c0,12.5,5.9,23.7,15,30.9c-21.1,5.1-36.7,24.1-36.7,46.7
	c0,17.2,9,32.2,22.4,40.6c-6.8,12.4-10.6,26.6-10.6,41.6c0,48,38.8,86.8,86.8,86.8c4.8,0,9.4-0.4,14-1.2c7.1,17.6,24.4,30,44.5,30
	c16.7,0,31.4-8.5,40-21.4c11.3,10.4,26.3,16.8,42.9,16.8c24.9,0,46.4-14.4,56.7-35.4c6,1.2,12,1.8,18.3,1.8
	c51.2,0,92.8-41.5,92.8-92.8c0-6-0.6-12-1.7-17.7c12.5-8.6,20.8-23.1,20.8-39.6C469.5,7054.4,463.3,7041.6,453.4,7032.8z
	 M225.4,7162.5c0.1-0.3,0.2-0.5,0.2-0.8c0,0,0.1,0.1,0.2,0.1C225.6,7162,225.5,7162.2,225.4,7162.5z M453.4,7487.9
	c4.4-7.3,6.9-15.7,6.9-24.9c0-18-9.9-33.6-24.4-41.9c0-1.1,0.1-2.2,0.1-3.4c0-51.2-41.5-92.8-92.8-92.8c-12.4,0-24.3,2.4-35,6.8
	c-7.6-5.2-16.9-8.2-26.8-8.2c-5,0-9.7,0.7-14.2,2.1c-8.8-11.6-22.8-19.2-38.5-19.2c-15.6,0-29.6,7.5-38.3,19.1
	c-9-4.2-18.9-6.6-29.4-6.6c-38.1,0-69.1,30.9-69.1,69.1c0,3.5,0.3,6.8,0.7,10.1c-16.4,4.8-28.4,19.9-28.4,37.9
	c0,12.5,5.9,23.7,15,30.9c-21.1,5.1-36.7,24.1-36.7,46.7c0,17.2,9,32.2,22.4,40.6c-6.8,12.4-10.6,26.5-10.6,41.6
	c0,48,38.8,86.8,86.8,86.8c4.8,0,9.4-0.4,14-1.2c7.1,17.6,24.4,30,44.5,30c16.7,0,31.4-8.5,40-21.4c11.3,10.4,26.3,16.8,42.9,16.8
	c24.9,0,46.4-14.4,56.7-35.4c6,1.2,12,1.8,18.3,1.8c51.2,0,92.8-41.5,92.8-92.8c0-6-0.6-12-1.7-17.7c12.5-8.6,20.8-23.1,20.8-39.6
	C469.5,7509.5,463.3,7496.7,453.4,7487.9z M225.4,7617.6c0.1-0.3,0.2-0.5,0.2-0.8c0,0,0.1,0.1,0.2,0.1
	C225.6,7617.1,225.5,7617.3,225.4,7617.6z M453.4,7943c4.4-7.3,6.9-15.7,6.9-24.9c0-18-9.9-33.6-24.4-41.9c0-1.1,0.1-2.2,0.1-3.4
	c0-51.2-41.5-92.8-92.8-92.8c-12.4,0-24.3,2.4-35,6.8c-7.6-5.2-16.9-8.2-26.8-8.2c-5,0-9.7,0.7-14.2,2.1
	c-8.8-11.6-22.8-19.2-38.5-19.2c-15.6,0-29.6,7.5-38.3,19.1c-9-4.2-18.9-6.6-29.4-6.6c-38.1,0-69.1,30.9-69.1,69.1
	c0,3.5,0.3,6.8,0.7,10.1c-16.4,4.8-28.4,19.9-28.4,37.9c0,12.5,5.9,23.7,15,30.9c-21.1,5.1-36.7,24.1-36.7,46.7
	c0,17.2,9,32.2,22.4,40.6c-6.8,12.4-10.6,26.5-10.6,41.6c0,48,38.8,86.8,86.8,86.8c4.8,0,9.4-0.4,14-1.2c7.1,17.6,24.4,30,44.5,30
	c16.7,0,31.4-8.5,40-21.4c11.3,10.4,26.3,16.8,42.9,16.8c24.9,0,46.4-14.4,56.7-35.4c6,1.2,12,1.8,18.3,1.8
	c51.2,0,92.8-41.5,92.8-92.8c0-6-0.6-12-1.7-17.7c12.5-8.6,20.8-23.1,20.8-39.6C469.5,7964.6,463.3,7951.8,453.4,7943z
	 M225.4,8072.7c0.1-0.3,0.2-0.5,0.2-0.8c0,0,0.1,0.1,0.2,0.1C225.6,8072.2,225.5,8072.4,225.4,8072.7z"/>
<path class="st1" d="M158.6,7887.3c-6.4-8.2-17.7-11.1-27.4-6.8c-4.4-10.9-15-18.8-27.5-18.8c-16.4,0-29.6,13.2-29.6,29.6
	c0,4.2,0.9,8.1,2.4,11.7c-0.1-1.2-0.2-2.2-0.2-3.4c0-16.4,13.2-29.6,29.6-29.6c9.5,0,17.9,4.4,23.3,11.5
	c-9.3,5.3-13.5,16.3-10.7,26.2c2.5-7.4,7.7-13.9,15.1-17.9C141.5,7885.5,150.5,7884.9,158.6,7887.3z M64.9,7934.2
	c-11.6,7.1-17.6,19.8-16.7,32.5c2.6-11,9.4-21.1,19.8-27.4c10.5-6.4,22.5-7.8,33.5-5.1C90.7,7927.6,76.5,7927.1,64.9,7934.2z
	 M205.1,7876.3c-16.1-2.5-31.3,8.5-33.9,24.7c-0.3,1.8-0.4,3.6-0.4,5.2c-0.4,0-0.9,0-1.3,0.1c-13.5,1.3-24.5,10.1-29.2,22
	c7.2-8.8,17.6-14.8,29.8-16c0.5-0.1,1.1-0.1,1.6-0.1c0.1,0.3,0.1,0.4,0.2,0.7c0-0.3,0-0.5,0.1-0.7c11.6-0.6,22.3,3.3,30.6,10.2
	c-6.3-9.9-17.3-16.3-29.6-16.3c4-14.3,18.1-23.6,33.1-21.3c12,1.9,21.2,10.8,24.1,21.9C230.7,7891.9,220,7878.6,205.1,7876.3z
	 M218.1,7830.6c-16.5,3.7-27.7,18.4-27.7,34.7c6.9-10,17.4-17.4,30.1-20.3c13.7-3.1,27.4-0.3,38.3,6.8
	C252.4,7836,235.4,7826.7,218.1,7830.6z M320.2,7877c-5.7-11.5-17.4-19.4-31-19.6c-13.6-0.2-25.4,7.5-31.4,18.8
	c8.1-8,19.1-12.9,31.3-12.7C301.2,7863.6,312.3,7868.8,320.2,7877z M377,7886.8c-14.7-6.6-31.5-2.3-41.4,9.3c-0.6-0.4-1.3-0.6-2-1
	c-15.9-6.9-33.7-3.9-46.3,6.4c13.4-5.3,28.9-5.6,43.2,0.7c14.3,6.3,24.7,17.9,29.9,31.5c-0.9-14.9-9.2-29-22.9-36.6
	c10.6-2.8,22.1-2,32.9,2.8c12.9,5.7,22.1,16.2,26.7,28.4C401.2,7911.6,393.2,7894,377,7886.8z M421.5,7940.8
	c-14,0-26.1,7.6-32.8,18.8c6.9-7.5,16.9-12.2,27.8-12.2c21.1,0,38.1,17.2,38.1,38.1c0,7.1-2,13.7-5.3,19.4c6.4-6.8,10.3-16,10.3-26
	C459.6,7957.9,442.5,7940.8,421.5,7940.8z M134.1,7811.2c-11.6,7.1-17.6,19.8-16.7,32.5c2.6-11,9.4-21.1,19.8-27.4
	c10.5-6.4,22.5-7.8,33.5-5.1C159.9,7804.6,145.8,7804.1,134.1,7811.2z M326,7818.9c14.2-2.8,29.4-0.2,42.3,8.6s21,22.1,23.6,36.4
	c2-16.2-4.8-33-19.2-42.8C358.3,7811.4,340.3,7811.2,326,7818.9z M343.2,7790c-13.1,0-25.4,3-36.4,8.4c-6.8-6-15.6-9.8-25.4-9.8
	c-6.6,0-12.8,1.7-18.2,4.6c-6.1-12.8-19.2-21.8-34.4-21.8c-15.5,0-28.8,9.2-34.8,22.6c-9.4-6.3-20.8-10-33-10
	c-32.6,0-59.2,26.6-59.2,59.2c0,4.8,0.6,9.5,1.7,14c0-0.4,0-0.9,0-1.3c0-32.6,26.6-59.2,59.2-59.2c10.3,0,20,2.7,28.4,7.3
	c-0.3,1.9-0.4,3.7-0.4,5.7c0,1.9,0.2,3.7,0.4,5.5c0.5-3.4,1.4-6.6,2.8-9.6c1.2-2.9,2.8-5.6,4.8-8.1c6.9-9.1,17.9-14.9,30.2-14.9
	c11.8,0,22.5,5.4,29.4,14c-9.1,7-14.9,18-14.9,30.2c0,2,0.2,4.1,0.5,6c2-12,9.5-22.1,19.8-27.6c0.9-0.5,1.9-1,2.8-1.3
	c4.6-2,9.6-3.1,14.9-3.1c5.5,0,10.8,1.2,15.6,3.4c-13.3,9.1-23.9,21.9-30.2,36.9c9.5-14,23.2-25.1,39.2-31.2c2.7-1,5.3-1.9,8.1-2.7
	c6.8-1.9,14-2.8,21.4-2.8c43.4,0,79.1,33.5,82.6,76c0.2,2.3,0.3,4.5,0.3,6.8c0,0.9,0,1.7-0.1,2.6c-0.4,10.3-2.5,20.2-6.3,29.2
	c5.5-8.1,9.5-17.2,11.9-27.1c12.8,6.1,21.7,19.2,21.7,34.3c0,5.4-1.2,10.6-3.2,15.2c5.1-6.5,8.2-14.7,8.2-23.5
	c0-16.4-10.4-30.3-24.9-35.7c0.4-3.1,0.5-6.2,0.5-9.4C426.1,7827.3,388.9,7790,343.2,7790z M218.1,93.7
	c-16.5,3.7-27.7,18.4-27.7,34.7c6.9-10,17.4-17.4,30.1-20.3c13.7-3.1,27.4-0.3,38.3,6.8C252.4,99.1,235.4,89.8,218.1,93.7z
	 M368.3,90.7c12.9,8.8,21,22.1,23.6,36.4c2-16.2-4.8-33-19.2-42.8c-14.3-9.8-32.4-10-46.7-2.2C340.2,79.3,355.4,81.9,368.3,90.7z
	 M421.5,203.9c-14,0-26.1,7.6-32.8,18.8c6.9-7.5,16.9-12.2,27.8-12.2c21.1,0,38.1,17.2,38.1,38.1c0,7.1-2,13.7-5.3,19.4
	c6.4-6.8,10.3-16,10.3-26C459.6,221,442.5,203.9,421.5,203.9z M287.3,164.6c13.4-5.3,28.9-5.6,43.2,0.7
	c14.3,6.3,24.7,17.9,29.9,31.5c-0.9-14.9-9.2-29-22.9-36.6c10.6-2.8,22.1-2,32.9,2.8c12.9,5.7,22.1,16.2,26.7,28.4
	c4.3-16.5-3.8-34.2-19.9-41.4c-14.7-6.6-31.5-2.3-41.4,9.3c-0.6-0.4-1.3-0.6-2-1C317.7,151.3,300,154.3,287.3,164.6z M289.2,120.6
	c-13.6-0.2-25.4,7.5-31.4,18.8c8.1-8,19.1-12.9,31.3-12.7c12.3,0.1,23.2,5.3,31.1,13.5C314.5,128.7,302.8,120.7,289.2,120.6z
	 M103.4,119.2c0-32.6,26.6-59.2,59.2-59.2c10.3,0,20,2.7,28.4,7.3c-0.3,1.9-0.4,3.7-0.4,5.7c0,1.9,0.2,3.7,0.4,5.5
	c0.5-3.4,1.4-6.6,2.8-9.6c1.2-2.9,2.8-5.6,4.8-8.1c6.9-9.1,17.9-14.9,30.2-14.9c11.8,0,22.5,5.4,29.4,14c-9.1,7-14.9,18-14.9,30.2
	c0,2,0.2,4.1,0.5,6c2-12,9.5-22.1,19.8-27.6c0.9-0.5,1.9-1,2.8-1.3c4.6-2,9.6-3.1,14.9-3.1c5.5,0,10.8,1.2,15.6,3.4
	c-13.3,9.1-23.9,21.9-30.2,36.9c9.5-14,23.2-25.1,39.2-31.2c2.7-1,5.3-1.9,8.1-2.7c6.8-1.9,14-2.8,21.4-2.8
	c43.4,0,79.1,33.5,82.6,76c0.2,2.3,0.3,4.5,0.3,6.8c0,0.9,0,1.7-0.1,2.6c-0.4,10.3-2.5,20.2-6.3,29.2c5.5-8.1,9.5-17.2,11.9-27.1
	c12.8,6.1,21.7,19.2,21.7,34.3c0,5.4-1.2,10.6-3.2,15.2c5.1-6.5,8.2-14.7,8.2-23.5c0-16.4-10.4-30.3-24.9-35.7
	c0.4-3.1,0.5-6.2,0.5-9.4c0-45.7-37.2-82.9-82.9-82.9c-13.1,0-25.4,3-36.4,8.4c-6.8-6-15.6-9.8-25.4-9.8c-6.6,0-12.8,1.7-18.2,4.6
	c-6.1-12.8-19.2-21.8-34.4-21.8c-15.5,0-28.8,9.2-34.8,22.6c-9.4-6.3-20.8-10-33-10c-32.6,0-59.2,26.6-59.2,59.2
	c0,4.8,0.6,9.5,1.7,14C103.4,120.1,103.4,119.6,103.4,119.2z M76.3,162.8c0-16.4,13.2-29.6,29.6-29.6c9.5,0,17.9,4.4,23.3,11.5
	c-9.3,5.3-13.5,16.3-10.7,26.2c2.5-7.4,7.7-13.9,15.1-17.9c7.9-4.4,16.9-5,25-2.5c-6.4-8.2-17.7-11.1-27.4-6.8
	c-4.4-10.9-15-18.8-27.5-18.8c-16.4,0-29.6,13.2-29.6,29.6c0,4.2,0.9,8.1,2.4,11.7C76.4,165.1,76.3,164,76.3,162.8z M140.4,191.4
	c7.2-8.8,17.6-14.8,29.8-16c0.5-0.1,1.1-0.1,1.6-0.1c0.1,0.3,0.1,0.4,0.2,0.7c0-0.3,0-0.5,0.1-0.7c11.6-0.6,22.3,3.3,30.6,10.2
	c-6.3-9.9-17.3-16.3-29.6-16.3c4-14.3,18.1-23.6,33.1-21.3c12,1.9,21.2,10.8,24.1,21.9c0.6-14.8-10-28.1-25-30.4
	c-16.1-2.5-31.3,8.5-33.9,24.7c-0.3,1.8-0.4,3.6-0.4,5.2c-0.4,0-0.9,0-1.3,0.1C156,170.7,145.1,179.6,140.4,191.4z M134.1,74.3
	c-11.6,7.1-17.6,19.8-16.7,32.5c2.6-11,9.4-21.1,19.8-27.4c10.5-6.4,22.5-7.8,33.5-5.1C159.9,67.7,145.8,67.2,134.1,74.3z M68,202.5
	c10.5-6.4,22.5-7.8,33.5-5.1c-10.8-6.7-25-7.2-36.6-0.1c-11.6,7.1-17.6,19.8-16.7,32.5C50.8,218.8,57.6,208.9,68,202.5z
	 M320.2,595.2c-5.7-11.5-17.4-19.4-31-19.6c-13.6-0.2-25.4,7.5-31.4,18.8c8.1-8,19.1-12.9,31.3-12.7
	C301.2,581.9,312.3,587,320.2,595.2z M218.1,548.8c-16.5,3.7-27.7,18.4-27.7,34.7c6.9-10,17.4-17.4,30.1-20.3
	c13.7-3.1,27.4-0.3,38.3,6.8C252.4,554.2,235.4,544.9,218.1,548.8z M140.4,646.5c7.2-8.8,17.6-14.8,29.8-16c0.5-0.1,1.1-0.1,1.6-0.1
	c0.1,0.3,0.1,0.4,0.2,0.7c0-0.3,0-0.5,0.1-0.7c11.6-0.6,22.3,3.3,30.6,10.2c-6.3-9.9-17.3-16.3-29.6-16.3
	c4-14.3,18.1-23.6,33.1-21.3c12,1.9,21.2,10.8,24.1,21.9c0.6-14.8-10-28.1-25-30.4c-16.1-2.5-31.3,8.5-33.9,24.7
	c-0.3,1.8-0.4,3.6-0.4,5.2c-0.4,0-0.9,0-1.3,0.1C156,625.8,145.1,634.7,140.4,646.5z M134.1,529.4c-11.6,7.1-17.6,19.8-16.7,32.5
	c2.6-11,9.4-21.1,19.8-27.4c10.5-6.4,22.5-7.8,33.5-5.1C159.9,522.8,145.8,522.3,134.1,529.4z M377,605c-14.7-6.6-31.5-2.3-41.4,9.3
	c-0.6-0.4-1.3-0.6-2-1c-15.9-6.9-33.7-3.9-46.3,6.4c13.4-5.3,28.9-5.6,43.2,0.7c14.3,6.3,24.7,17.9,29.9,31.5
	c-0.9-14.9-9.2-29-22.9-36.6c10.6-2.8,22.1-2,32.9,2.8c12.9,5.7,22.1,16.2,26.7,28.4C401.2,629.9,393.2,612.2,377,605z M421.5,659
	c-14,0-26.1,7.6-32.8,18.8c6.9-7.5,16.9-12.2,27.8-12.2c21.1,0,38.1,17.2,38.1,38.1c0,7.1-2,13.7-5.3,19.4c6.4-6.8,10.3-16,10.3-26
	C459.6,676.1,442.5,659,421.5,659z M450.5,636.4c0-16.4-10.4-30.3-24.9-35.7c0.4-3.1,0.5-6.2,0.5-9.4c0-45.7-37.2-82.9-82.9-82.9
	c-13.1,0-25.4,3-36.4,8.4c-6.8-6-15.6-9.8-25.4-9.8c-6.6,0-12.8,1.7-18.2,4.6c-6.1-12.8-19.2-21.8-34.4-21.8
	c-15.5,0-28.8,9.2-34.8,22.6c-9.4-6.3-20.8-10-33-10c-32.6,0-59.2,26.6-59.2,59.2c0,4.8,0.6,9.5,1.7,14c0-0.4,0-0.9,0-1.3
	c0-32.6,26.6-59.2,59.2-59.2c10.3,0,20,2.7,28.4,7.3c-0.3,1.9-0.4,3.7-0.4,5.7c0,1.9,0.2,3.7,0.4,5.5c0.5-3.4,1.4-6.6,2.8-9.6
	c1.2-2.9,2.8-5.6,4.8-8.1c6.9-9.1,17.9-14.9,30.2-14.9c11.8,0,22.5,5.4,29.4,14c-9.1,7-14.9,18-14.9,30.2c0,2,0.2,4.1,0.5,6
	c2-12,9.5-22.1,19.8-27.6c0.9-0.5,1.9-1,2.8-1.3c4.6-2,9.6-3.1,14.9-3.1c5.5,0,10.8,1.2,15.6,3.4c-13.3,9.1-23.9,21.9-30.2,36.9
	c9.5-14,23.2-25.1,39.2-31.2c2.7-1,5.3-1.9,8.1-2.7c6.8-1.9,14-2.8,21.4-2.8c43.4,0,79.1,33.5,82.6,76c0.2,2.3,0.3,4.5,0.3,6.8
	c0,0.9,0,1.7-0.1,2.6c-0.4,10.3-2.5,20.2-6.3,29.2c5.5-8.1,9.5-17.2,11.9-27.1c12.8,6.1,21.7,19.2,21.7,34.3
	c0,5.4-1.2,10.6-3.2,15.2C447.4,653.4,450.5,645.2,450.5,636.4z M105.9,588.4c9.5,0,17.9,4.4,23.3,11.5
	c-9.3,5.3-13.5,16.3-10.7,26.2c2.5-7.4,7.7-13.9,15.1-17.9c7.9-4.4,16.9-5,25-2.5c-6.4-8.2-17.7-11.1-27.4-6.8
	c-4.4-10.9-15-18.8-27.5-18.8c-16.4,0-29.6,13.2-29.6,29.6c0,4.2,0.9,8.1,2.4,11.7c-0.1-1.2-0.2-2.2-0.2-3.4
	C76.3,601.6,89.6,588.4,105.9,588.4z M368.3,545.8c12.9,8.8,21,22.1,23.6,36.4c2-16.2-4.8-33-19.2-42.8c-14.3-9.8-32.4-10-46.7-2.2
	C340.2,534.4,355.4,537,368.3,545.8z M68,657.6c10.5-6.4,22.5-7.8,33.5-5.1c-10.8-6.7-25-7.2-36.6-0.1
	c-11.6,7.1-17.6,19.8-16.7,32.5C50.8,674,57.6,664,68,657.6z M68,1112.7c10.5-6.4,22.5-7.8,33.5-5.1c-10.8-6.7-25.1-7.2-36.6-0.1
	c-11.6,7.1-17.6,19.8-16.7,32.5C50.8,1129.1,57.6,1119.1,68,1112.7z M368.3,1000.9c12.9,8.8,21,22.1,23.6,36.4
	c2-16.2-4.8-33-19.2-42.8c-14.3-9.8-32.4-10-46.7-2.2C340.2,989.5,355.4,992.1,368.3,1000.9z M140.4,1101.6
	c7.2-8.8,17.6-14.8,29.8-16c0.5-0.1,1.1-0.1,1.6-0.1c0.1,0.3,0.1,0.4,0.2,0.7c0-0.3,0-0.5,0.1-0.7c11.6-0.6,22.3,3.3,30.6,10.2
	c-6.3-9.9-17.3-16.3-29.6-16.3c4-14.3,18.1-23.6,33.1-21.3c12,1.9,21.2,10.8,24.1,21.9c0.6-14.8-10-28.1-25-30.4
	c-16.1-2.5-31.3,8.5-33.9,24.7c-0.3,1.8-0.4,3.6-0.4,5.2c-0.4,0-0.9,0-1.3,0.1C156,1080.9,145.1,1089.8,140.4,1101.6z M421.5,1114.1
	c-14,0-26.1,7.6-32.8,18.8c6.9-7.5,16.9-12.2,27.8-12.2c21.1,0,38.1,17.2,38.1,38.1c0,7.1-2,13.7-5.3,19.4c6.4-6.8,10.3-16,10.3-26
	C459.6,1131.2,442.5,1114.1,421.5,1114.1z M343.2,963.4c-13.1,0-25.4,3-36.4,8.4c-6.8-6-15.6-9.8-25.4-9.8c-6.6,0-12.8,1.7-18.2,4.6
	c-6.1-12.8-19.2-21.8-34.4-21.8c-15.5,0-28.8,9.2-34.8,22.6c-9.4-6.3-20.8-10-33-10c-32.6,0-59.2,26.6-59.2,59.2
	c0,4.8,0.6,9.5,1.7,14c0-0.4,0-0.9,0-1.3c0-32.6,26.6-59.2,59.2-59.2c10.3,0,20,2.7,28.4,7.3c-0.3,1.9-0.4,3.7-0.4,5.7
	c0,1.9,0.2,3.7,0.4,5.5c0.5-3.4,1.4-6.6,2.8-9.6c1.2-2.9,2.8-5.6,4.8-8.1c6.9-9.1,17.9-14.9,30.2-14.9c11.8,0,22.5,5.4,29.4,14
	c-9.1,7-14.9,18-14.9,30.2c0,2,0.2,4.1,0.5,6c2-12,9.5-22.1,19.8-27.6c0.9-0.5,1.9-1,2.8-1.3c4.6-2,9.6-3.1,14.9-3.1
	c5.5,0,10.8,1.2,15.6,3.4c-13.3,9.1-23.9,21.9-30.2,36.9c9.5-14,23.2-25.1,39.2-31.2c2.7-1,5.3-1.9,8.1-2.7c6.8-1.9,14-2.8,21.4-2.8
	c43.4,0,79.1,33.5,82.6,76c0.2,2.3,0.3,4.5,0.3,6.8c0,0.9,0,1.7-0.1,2.6c-0.4,10.3-2.5,20.2-6.3,29.2c5.5-8.1,9.5-17.2,11.9-27.1
	c12.8,6.1,21.7,19.2,21.7,34.3c0,5.4-1.2,10.6-3.2,15.2c5.1-6.5,8.2-14.7,8.2-23.5c0-16.4-10.4-30.3-24.9-35.7
	c0.4-3.1,0.5-6.2,0.5-9.4C426.1,1000.6,388.9,963.4,343.2,963.4z M105.9,1043.5c9.5,0,17.9,4.4,23.3,11.5
	c-9.3,5.3-13.5,16.3-10.7,26.2c2.5-7.4,7.7-13.9,15.1-17.9c7.9-4.4,16.9-5,25-2.5c-6.4-8.2-17.7-11.1-27.4-6.8
	c-4.4-10.9-15-18.8-27.5-18.8c-16.4,0-29.6,13.2-29.6,29.6c0,4.2,0.9,8.1,2.4,11.7c-0.1-1.2-0.2-2.2-0.2-3.4
	C76.3,1056.7,89.6,1043.5,105.9,1043.5z M377,1060.1c-14.7-6.6-31.5-2.3-41.4,9.3c-0.6-0.4-1.3-0.6-2-1c-15.9-6.9-33.7-3.9-46.3,6.4
	c13.4-5.3,28.9-5.6,43.2,0.7c14.3,6.3,24.7,17.9,29.9,31.5c-0.9-14.9-9.2-29-22.9-36.6c10.6-2.8,22.1-2,32.9,2.8
	c12.9,5.7,22.1,16.2,26.7,28.4C401.2,1085,393.2,1067.3,377,1060.1z M218.1,1003.9c-16.5,3.7-27.7,18.4-27.7,34.7
	c6.9-10,17.4-17.4,30.1-20.3c13.7-3.1,27.4-0.3,38.3,6.8C252.4,1009.3,235.4,1000,218.1,1003.9z M134.1,984.5
	c-11.6,7.1-17.6,19.8-16.7,32.5c2.6-11,9.4-21.1,19.8-27.4c10.5-6.4,22.5-7.8,33.5-5.1C159.9,978,145.8,977.4,134.1,984.5z
	 M320.2,1050.3c-5.7-11.5-17.4-19.4-31-19.6c-13.6-0.2-25.4,7.5-31.4,18.8c8.1-8,19.1-12.9,31.3-12.7
	C301.2,1037,312.3,1042.1,320.2,1050.3z M377,1515.2c-14.7-6.6-31.5-2.3-41.4,9.3c-0.6-0.4-1.3-0.6-2-1c-15.9-6.9-33.7-3.9-46.3,6.4
	c13.4-5.3,28.9-5.6,43.2,0.7c14.3,6.3,24.7,17.9,29.9,31.5c-0.9-14.9-9.2-29-22.9-36.6c10.6-2.8,22.1-2,32.9,2.8
	c12.9,5.7,22.1,16.2,26.7,28.4C401.2,1540.1,393.2,1522.4,377,1515.2z M368.3,1456c12.9,8.8,21,22.1,23.6,36.4
	c2-16.2-4.8-33-19.2-42.8c-14.3-9.8-32.4-10-46.7-2.2C340.2,1444.6,355.4,1447.2,368.3,1456z M134.1,1439.6
	c-11.6,7.1-17.6,19.8-16.7,32.5c2.6-11,9.4-21.1,19.8-27.4c10.5-6.4,22.5-7.8,33.5-5.1C159.9,1433.1,145.8,1432.5,134.1,1439.6z
	 M218.1,1459c-16.5,3.7-27.7,18.4-27.7,34.7c6.9-10,17.4-17.4,30.1-20.3c13.7-3.1,27.4-0.3,38.3,6.8
	C252.4,1464.4,235.4,1455.1,218.1,1459z M320.2,1505.4c-5.7-11.5-17.4-19.4-31-19.6c-13.6-0.2-25.4,7.5-31.4,18.8
	c8.1-8,19.1-12.9,31.3-12.7C301.2,1492.1,312.3,1497.2,320.2,1505.4z M140.4,1556.7c7.2-8.8,17.6-14.8,29.8-16
	c0.5-0.1,1.1-0.1,1.6-0.1c0.1,0.3,0.1,0.4,0.2,0.7c0-0.3,0-0.5,0.1-0.7c11.6-0.6,22.3,3.3,30.6,10.2c-6.3-9.9-17.3-16.3-29.6-16.3
	c4-14.3,18.1-23.6,33.1-21.3c12,1.9,21.2,10.8,24.1,21.9c0.6-14.8-10-28.1-25-30.4c-16.1-2.5-31.3,8.5-33.9,24.7
	c-0.3,1.8-0.4,3.6-0.4,5.2c-0.4,0-0.9,0-1.3,0.1C156,1536,145.1,1544.9,140.4,1556.7z M343.2,1418.5c-13.1,0-25.4,3-36.4,8.4
	c-6.8-6-15.6-9.8-25.4-9.8c-6.6,0-12.8,1.7-18.2,4.6c-6.1-12.8-19.2-21.8-34.4-21.8c-15.5,0-28.8,9.2-34.8,22.6
	c-9.4-6.3-20.8-10-33-10c-32.6,0-59.2,26.6-59.2,59.2c0,4.8,0.6,9.5,1.7,14c0-0.4,0-0.9,0-1.3c0-32.6,26.6-59.2,59.2-59.2
	c10.3,0,20,2.7,28.4,7.3c-0.3,1.9-0.4,3.7-0.4,5.7c0,1.9,0.2,3.7,0.4,5.5c0.5-3.4,1.4-6.6,2.8-9.6c1.2-2.9,2.8-5.6,4.8-8.1
	c6.9-9.1,17.9-14.9,30.2-14.9c11.8,0,22.5,5.4,29.4,14c-9.1,7-14.9,18-14.9,30.2c0,2,0.2,4.1,0.5,6c2-12,9.5-22.1,19.8-27.6
	c0.9-0.5,1.9-1,2.8-1.3c4.6-2,9.6-3.1,14.9-3.1c5.5,0,10.8,1.2,15.6,3.4c-13.3,9.1-23.9,21.9-30.2,36.9c9.5-14,23.2-25.1,39.2-31.2
	c2.7-1,5.3-1.9,8.1-2.7c6.8-1.9,14-2.8,21.4-2.8c43.4,0,79.1,33.5,82.6,76c0.2,2.3,0.3,4.5,0.3,6.8c0,0.9,0,1.7-0.1,2.6
	c-0.4,10.3-2.5,20.2-6.3,29.2c5.5-8.1,9.5-17.2,11.9-27.1c12.8,6.1,21.7,19.2,21.7,34.3c0,5.4-1.2,10.6-3.2,15.2
	c5.1-6.5,8.2-14.7,8.2-23.5c0-16.4-10.4-30.3-24.9-35.7c0.4-3.1,0.5-6.2,0.5-9.4C426.1,1455.7,388.9,1418.5,343.2,1418.5z
	 M105.9,1498.6c9.5,0,17.9,4.4,23.3,11.5c-9.3,5.3-13.5,16.3-10.7,26.2c2.5-7.4,7.7-13.9,15.1-17.9c7.9-4.4,16.9-5,25-2.5
	c-6.4-8.2-17.7-11.1-27.4-6.8c-4.4-10.9-15-18.8-27.5-18.8c-16.4,0-29.6,13.2-29.6,29.6c0,4.2,0.9,8.1,2.4,11.7
	c-0.1-1.2-0.2-2.2-0.2-3.4C76.3,1511.8,89.6,1498.6,105.9,1498.6z M421.5,1569.2c-14,0-26.1,7.6-32.8,18.8
	c6.9-7.5,16.9-12.2,27.8-12.2c21.1,0,38.1,17.2,38.1,38.1c0,7.1-2,13.7-5.3,19.4c6.4-6.8,10.3-16,10.3-26
	C459.6,1586.3,442.5,1569.2,421.5,1569.2z M68,1567.8c10.5-6.4,22.5-7.8,33.5-5.1c-10.8-6.7-25.1-7.2-36.6-0.1
	c-11.6,7.1-17.6,19.8-16.7,32.5C50.8,1584.2,57.6,1574.2,68,1567.8z M218.1,1914.1c-16.5,3.7-27.7,18.4-27.7,34.7
	c6.9-10,17.4-17.4,30.1-20.3c13.7-3.1,27.4-0.3,38.3,6.8C252.4,1919.6,235.4,1910.2,218.1,1914.1z M320.2,1960.5
	c-5.7-11.5-17.4-19.4-31-19.6c-13.6-0.2-25.4,7.5-31.4,18.8c8.1-8,19.1-12.9,31.3-12.7C301.2,1947.2,312.3,1952.4,320.2,1960.5z
	 M134.1,1894.8c-11.6,7.1-17.6,19.8-16.7,32.5c2.6-11,9.4-21.1,19.8-27.4c10.5-6.4,22.5-7.8,33.5-5.1
	C159.9,1888.2,145.8,1887.6,134.1,1894.8z M368.3,1911.1c12.9,8.8,21,22.1,23.6,36.4c2-16.2-4.8-33-19.2-42.8
	c-14.3-9.8-32.4-10-46.7-2.2C340.2,1899.7,355.4,1902.3,368.3,1911.1z M377,1970.3c-14.7-6.6-31.5-2.3-41.4,9.3
	c-0.6-0.4-1.3-0.6-2-1c-15.9-6.9-33.7-3.9-46.3,6.4c13.4-5.3,28.9-5.6,43.2,0.7c14.3,6.3,24.7,17.9,29.9,31.5
	c-0.9-14.9-9.2-29-22.9-36.6c10.6-2.8,22.1-2,32.9,2.8c12.9,5.7,22.1,16.2,26.7,28.4C401.2,1995.2,393.2,1977.5,377,1970.3z
	 M68,2022.9c10.5-6.4,22.5-7.8,33.5-5.1c-10.8-6.7-25.1-7.2-36.6-0.1c-11.6,7.1-17.6,19.8-16.7,32.5
	C50.8,2039.3,57.6,2029.3,68,2022.9z M105.9,1953.7c9.5,0,17.9,4.4,23.3,11.5c-9.3,5.3-13.5,16.3-10.7,26.2
	c2.5-7.4,7.7-13.9,15.1-17.9c7.9-4.4,16.9-5,25-2.5c-6.4-8.2-17.7-11.1-27.4-6.8c-4.4-10.9-15-18.8-27.5-18.8
	c-16.4,0-29.6,13.2-29.6,29.6c0,4.2,0.9,8.1,2.4,11.7c-0.1-1.2-0.2-2.2-0.2-3.4C76.3,1966.9,89.6,1953.7,105.9,1953.7z
	 M421.5,2024.4c-14,0-26.1,7.6-32.8,18.8c6.9-7.5,16.9-12.2,27.8-12.2c21.1,0,38.1,17.2,38.1,38.1c0,7.1-2,13.7-5.3,19.4
	c6.4-6.8,10.3-16,10.3-26C459.6,2041.4,442.5,2024.4,421.5,2024.4z M343.2,1873.6c-13.1,0-25.4,3-36.4,8.4c-6.8-6-15.6-9.8-25.4-9.8
	c-6.6,0-12.8,1.7-18.2,4.6c-6.1-12.8-19.2-21.8-34.4-21.8c-15.5,0-28.8,9.2-34.8,22.6c-9.4-6.3-20.8-10-33-10
	c-32.6,0-59.2,26.6-59.2,59.2c0,4.8,0.6,9.5,1.7,14c0-0.4,0-0.9,0-1.3c0-32.6,26.6-59.2,59.2-59.2c10.3,0,20,2.7,28.4,7.3
	c-0.3,1.9-0.4,3.7-0.4,5.7c0,1.9,0.2,3.7,0.4,5.5c0.5-3.4,1.4-6.6,2.8-9.6c1.2-2.9,2.8-5.6,4.8-8.1c6.9-9.1,17.9-14.9,30.2-14.9
	c11.8,0,22.5,5.4,29.4,14c-9.1,7-14.9,18-14.9,30.2c0,2,0.2,4.1,0.5,6c2-12,9.5-22.1,19.8-27.6c0.9-0.5,1.9-1,2.8-1.3
	c4.6-2,9.6-3.1,14.9-3.1c5.5,0,10.8,1.2,15.6,3.4c-13.3,9.1-23.9,21.9-30.2,36.9c9.5-14,23.2-25.1,39.2-31.2c2.7-1,5.3-1.9,8.1-2.7
	c6.8-1.9,14-2.8,21.4-2.8c43.4,0,79.1,33.5,82.6,76c0.2,2.3,0.3,4.5,0.3,6.8c0,0.9,0,1.7-0.1,2.6c-0.4,10.3-2.5,20.2-6.3,29.2
	c5.5-8.1,9.5-17.2,11.9-27.1c12.8,6.1,21.7,19.2,21.7,34.3c0,5.4-1.2,10.6-3.2,15.2c5.1-6.5,8.2-14.7,8.2-23.5
	c0-16.4-10.4-30.3-24.9-35.7c0.4-3.1,0.5-6.2,0.5-9.4C426.1,1910.8,388.9,1873.6,343.2,1873.6z M140.4,2011.8
	c7.2-8.8,17.6-14.8,29.8-16c0.5-0.1,1.1-0.1,1.6-0.1c0.1,0.3,0.1,0.4,0.2,0.7c0-0.3,0-0.5,0.1-0.7c11.6-0.6,22.3,3.3,30.6,10.2
	c-6.3-9.9-17.3-16.3-29.6-16.3c4-14.3,18.1-23.6,33.1-21.3c12,1.9,21.2,10.8,24.1,21.9c0.6-14.8-10-28.1-25-30.4
	c-16.1-2.5-31.3,8.5-33.9,24.7c-0.3,1.8-0.4,3.6-0.4,5.2c-0.4,0-0.9,0-1.3,0.1C156,1991.1,145.1,2000,140.4,2011.8z M320.2,2415.6
	c-5.7-11.5-17.4-19.4-31-19.6c-13.6-0.2-25.4,7.5-31.4,18.8c8.1-8,19.1-12.9,31.3-12.7C301.2,2402.3,312.3,2407.5,320.2,2415.6z
	 M218.1,2369.2c-16.5,3.7-27.7,18.4-27.7,34.7c6.9-10,17.4-17.4,30.1-20.3c13.7-3.1,27.4-0.3,38.3,6.8
	C252.4,2374.7,235.4,2365.3,218.1,2369.2z M134.1,2349.9c-11.6,7.1-17.6,19.8-16.7,32.5c2.6-11,9.4-21.1,19.8-27.4
	c10.5-6.4,22.5-7.8,33.5-5.1C159.9,2343.3,145.8,2342.8,134.1,2349.9z M377,2425.4c-14.7-6.6-31.5-2.3-41.4,9.3
	c-0.6-0.4-1.3-0.6-2-1c-15.9-6.9-33.7-3.9-46.3,6.4c13.4-5.3,28.9-5.6,43.2,0.7c14.3,6.3,24.7,17.9,29.9,31.5
	c-0.9-14.9-9.2-29-22.9-36.6c10.6-2.8,22.1-2,32.9,2.8c12.9,5.7,22.1,16.2,26.7,28.4C401.2,2450.3,393.2,2432.6,377,2425.4z
	 M368.3,2366.2c12.9,8.8,21,22.1,23.6,36.4c2-16.2-4.8-33-19.2-42.8c-14.3-9.8-32.4-10-46.7-2.2
	C340.2,2354.8,355.4,2357.4,368.3,2366.2z M140.4,2466.9c7.2-8.8,17.6-14.8,29.8-16c0.5-0.1,1.1-0.1,1.6-0.1
	c0.1,0.3,0.1,0.4,0.2,0.7c0-0.3,0-0.5,0.1-0.7c11.6-0.6,22.3,3.3,30.6,10.2c-6.3-9.9-17.3-16.3-29.6-16.3
	c4-14.3,18.1-23.6,33.1-21.3c12,1.9,21.2,10.8,24.1,21.9c0.6-14.8-10-28.1-25-30.4c-16.1-2.5-31.3,8.5-33.9,24.7
	c-0.3,1.8-0.4,3.6-0.4,5.2c-0.4,0-0.9,0-1.3,0.1C156,2446.2,145.1,2455.1,140.4,2466.9z M421.5,2479.5c-14,0-26.1,7.6-32.8,18.8
	c6.9-7.5,16.9-12.2,27.8-12.2c21.1,0,38.1,17.2,38.1,38.1c0,7.1-2,13.7-5.3,19.4c6.4-6.8,10.3-16,10.3-26
	C459.6,2496.5,442.5,2479.5,421.5,2479.5z M343.2,2328.7c-13.1,0-25.4,3-36.4,8.4c-6.8-6-15.6-9.8-25.4-9.8
	c-6.6,0-12.8,1.7-18.2,4.6c-6.1-12.8-19.2-21.8-34.4-21.8c-15.5,0-28.8,9.2-34.8,22.6c-9.4-6.3-20.8-10-33-10
	c-32.6,0-59.2,26.6-59.2,59.2c0,4.8,0.6,9.5,1.7,14c0-0.4,0-0.9,0-1.3c0-32.6,26.6-59.2,59.2-59.2c10.3,0,20,2.7,28.4,7.3
	c-0.3,1.9-0.4,3.7-0.4,5.7c0,1.9,0.2,3.7,0.4,5.5c0.5-3.4,1.4-6.6,2.8-9.6c1.2-2.9,2.8-5.6,4.8-8.1c6.9-9.1,17.9-14.9,30.2-14.9
	c11.8,0,22.5,5.4,29.4,14c-9.1,7-14.9,18-14.9,30.2c0,2,0.2,4.1,0.5,6c2-12,9.5-22.1,19.8-27.6c0.9-0.5,1.9-1,2.8-1.3
	c4.6-2,9.6-3.1,14.9-3.1c5.5,0,10.8,1.2,15.6,3.4c-13.3,9.1-23.9,21.9-30.2,36.9c9.5-14,23.2-25.1,39.2-31.2c2.7-1,5.3-1.9,8.1-2.7
	c6.8-1.9,14-2.8,21.4-2.8c43.4,0,79.1,33.5,82.6,76c0.2,2.3,0.3,4.5,0.3,6.8c0,0.9,0,1.7-0.1,2.6c-0.4,10.3-2.5,20.2-6.3,29.2
	c5.5-8.1,9.5-17.2,11.9-27.1c12.8,6.1,21.7,19.2,21.7,34.3c0,5.4-1.2,10.6-3.2,15.2c5.1-6.5,8.2-14.7,8.2-23.5
	c0-16.4-10.4-30.3-24.9-35.7c0.4-3.1,0.5-6.2,0.5-9.4C426.1,2366,388.9,2328.7,343.2,2328.7z M68,2478c10.5-6.4,22.5-7.8,33.5-5.1
	c-10.8-6.7-25.1-7.2-36.6-0.1c-11.6,7.1-17.6,19.8-16.7,32.5C50.8,2494.4,57.6,2484.4,68,2478z M105.9,2408.8
	c9.5,0,17.9,4.4,23.3,11.5c-9.3,5.3-13.5,16.3-10.7,26.2c2.5-7.4,7.7-13.9,15.1-17.9c7.9-4.4,16.9-5,25-2.5
	c-6.4-8.2-17.7-11.1-27.4-6.8c-4.4-10.9-15-18.8-27.5-18.8c-16.4,0-29.6,13.2-29.6,29.6c0,4.2,0.9,8.1,2.4,11.7
	c-0.1-1.2-0.2-2.2-0.2-3.4C76.3,2422,89.6,2408.8,105.9,2408.8z M377,2880.5c-14.7-6.6-31.5-2.3-41.4,9.3c-0.6-0.4-1.3-0.6-2-1
	c-15.9-6.9-33.7-3.9-46.3,6.4c13.4-5.3,28.9-5.6,43.2,0.7c14.3,6.3,24.7,17.9,29.9,31.5c-0.9-14.9-9.2-29-22.9-36.6
	c10.6-2.8,22.1-2,32.9,2.8c12.9,5.7,22.1,16.2,26.7,28.4C401.2,2905.4,393.2,2887.7,377,2880.5z M134.1,2805
	c-11.6,7.1-17.6,19.8-16.7,32.5c2.6-11,9.4-21.1,19.8-27.4c10.5-6.4,22.5-7.8,33.5-5.1C159.9,2798.4,145.8,2797.9,134.1,2805z
	 M368.3,2821.3c12.9,8.8,21,22.1,23.6,36.4c2-16.2-4.8-33-19.2-42.8c-14.3-9.8-32.4-10-46.7-2.2
	C340.2,2810,355.4,2812.5,368.3,2821.3z M320.2,2870.8c-5.7-11.5-17.4-19.4-31-19.6c-13.6-0.2-25.4,7.5-31.4,18.8
	c8.1-8,19.1-12.9,31.3-12.7C301.2,2857.4,312.3,2862.6,320.2,2870.8z M343.2,2783.8c-13.1,0-25.4,3-36.4,8.4
	c-6.8-6-15.6-9.8-25.4-9.8c-6.6,0-12.8,1.7-18.2,4.6c-6.1-12.8-19.2-21.8-34.4-21.8c-15.5,0-28.8,9.2-34.8,22.6
	c-9.4-6.3-20.8-10-33-10c-32.6,0-59.2,26.6-59.2,59.2c0,4.8,0.6,9.5,1.7,14c0-0.4,0-0.9,0-1.3c0-32.6,26.6-59.2,59.2-59.2
	c10.3,0,20,2.7,28.4,7.3c-0.3,1.9-0.4,3.7-0.4,5.7c0,1.9,0.2,3.7,0.4,5.5c0.5-3.4,1.4-6.6,2.8-9.6c1.2-2.9,2.8-5.6,4.8-8.1
	c6.9-9.1,17.9-14.9,30.2-14.9c11.8,0,22.5,5.4,29.4,14c-9.1,7-14.9,18-14.9,30.2c0,2,0.2,4.1,0.5,6c2-12,9.5-22.1,19.8-27.6
	c0.9-0.5,1.9-1,2.8-1.3c4.6-2,9.6-3.1,14.9-3.1c5.5,0,10.8,1.2,15.6,3.4c-13.3,9.1-23.9,21.9-30.2,36.9c9.5-14,23.2-25.1,39.2-31.2
	c2.7-1,5.3-1.9,8.1-2.7c6.8-1.9,14-2.8,21.4-2.8c43.4,0,79.1,33.5,82.6,76c0.2,2.3,0.3,4.5,0.3,6.8c0,0.9,0,1.7-0.1,2.6
	c-0.4,10.3-2.5,20.2-6.3,29.2c5.5-8.1,9.5-17.2,11.9-27.1c12.8,6.1,21.7,19.2,21.7,34.3c0,5.4-1.2,10.6-3.2,15.2
	c5.1-6.5,8.2-14.7,8.2-23.5c0-16.4-10.4-30.3-24.9-35.7c0.4-3.1,0.5-6.2,0.5-9.4C426.1,2821.1,388.9,2783.8,343.2,2783.8z
	 M421.5,2934.6c-14,0-26.1,7.6-32.8,18.8c6.9-7.5,16.9-12.2,27.8-12.2c21.1,0,38.1,17.2,38.1,38.1c0,7.1-2,13.7-5.3,19.4
	c6.4-6.8,10.3-16,10.3-26C459.6,2951.6,442.5,2934.6,421.5,2934.6z M218.1,2824.4c-16.5,3.7-27.7,18.4-27.7,34.7
	c6.9-10,17.4-17.4,30.1-20.3c13.7-3.1,27.4-0.3,38.3,6.8C252.4,2829.8,235.4,2820.4,218.1,2824.4z M105.9,2863.9
	c9.5,0,17.9,4.4,23.3,11.5c-9.3,5.3-13.5,16.3-10.7,26.2c2.5-7.4,7.7-13.9,15.1-17.9c7.9-4.4,16.9-5,25-2.5
	c-6.4-8.2-17.7-11.1-27.4-6.8c-4.4-10.9-15-18.8-27.5-18.8c-16.4,0-29.6,13.2-29.6,29.6c0,4.2,0.9,8.1,2.4,11.7
	c-0.1-1.2-0.2-2.2-0.2-3.4C76.3,2877.2,89.6,2863.9,105.9,2863.9z M140.4,2922c7.2-8.8,17.6-14.8,29.8-16c0.5-0.1,1.1-0.1,1.6-0.1
	c0.1,0.3,0.1,0.4,0.2,0.7c0-0.3,0-0.5,0.1-0.7c11.6-0.6,22.3,3.3,30.6,10.2c-6.3-9.9-17.3-16.3-29.6-16.3
	c4-14.3,18.1-23.6,33.1-21.3c12,1.9,21.2,10.8,24.1,21.9c0.6-14.8-10-28.1-25-30.4c-16.1-2.5-31.3,8.5-33.9,24.7
	c-0.3,1.8-0.4,3.6-0.4,5.2c-0.4,0-0.9,0-1.3,0.1C156,2901.3,145.1,2910.2,140.4,2922z M68,2933.2c10.5-6.4,22.5-7.8,33.5-5.1
	c-10.8-6.7-25.1-7.2-36.6-0.1c-11.6,7.1-17.6,19.8-16.7,32.5C50.8,2949.5,57.6,2939.6,68,2933.2z M134.1,3260.1
	c-11.6,7.1-17.6,19.8-16.7,32.5c2.6-11,9.4-21.1,19.8-27.4c10.5-6.4,22.5-7.8,33.5-5.1C159.9,3253.5,145.8,3253,134.1,3260.1z
	 M368.3,3276.4c12.9,8.8,21,22.1,23.6,36.4c2-16.2-4.8-33-19.2-42.8c-14.3-9.8-32.4-10-46.7-2.2
	C340.2,3265.1,355.4,3267.6,368.3,3276.4z M320.2,3325.9c-5.7-11.5-17.4-19.4-31-19.6c-13.6-0.2-25.4,7.5-31.4,18.8
	c8.1-8,19.1-12.9,31.3-12.7C301.2,3312.5,312.3,3317.7,320.2,3325.9z M377,3335.6c-14.7-6.6-31.5-2.3-41.4,9.3c-0.6-0.4-1.3-0.6-2-1
	c-15.9-6.9-33.7-3.9-46.3,6.4c13.4-5.3,28.9-5.6,43.2,0.7c14.3,6.3,24.7,17.9,29.9,31.5c-0.9-14.9-9.2-29-22.9-36.6
	c10.6-2.8,22.1-2,32.9,2.8c12.9,5.7,22.1,16.2,26.7,28.4C401.2,3360.5,393.2,3342.8,377,3335.6z M218.1,3279.5
	c-16.5,3.7-27.7,18.4-27.7,34.7c6.9-10,17.4-17.4,30.1-20.3c13.7-3.1,27.4-0.3,38.3,6.8C252.4,3284.9,235.4,3275.6,218.1,3279.5z
	 M421.5,3389.7c-14,0-26.1,7.6-32.8,18.8c6.9-7.5,16.9-12.2,27.8-12.2c21.1,0,38.1,17.2,38.1,38.1c0,7.1-2,13.7-5.3,19.4
	c6.4-6.8,10.3-16,10.3-26C459.6,3406.8,442.5,3389.7,421.5,3389.7z M68,3388.3c10.5-6.4,22.5-7.8,33.5-5.1
	c-10.8-6.7-25.1-7.2-36.6-0.1c-11.6,7.1-17.6,19.8-16.7,32.5C50.8,3404.6,57.6,3394.7,68,3388.3z M105.9,3319
	c9.5,0,17.9,4.4,23.3,11.5c-9.3,5.3-13.5,16.3-10.7,26.2c2.5-7.4,7.7-13.9,15.1-17.9c7.9-4.4,16.9-5,25-2.5
	c-6.4-8.2-17.7-11.1-27.4-6.8c-4.4-10.9-15-18.8-27.5-18.8c-16.4,0-29.6,13.2-29.6,29.6c0,4.2,0.9,8.1,2.4,11.7
	c-0.1-1.2-0.2-2.2-0.2-3.4C76.3,3332.3,89.6,3319,105.9,3319z M140.4,3377.2c7.2-8.8,17.6-14.8,29.8-16c0.5-0.1,1.1-0.1,1.6-0.1
	c0.1,0.3,0.1,0.4,0.2,0.7c0-0.3,0-0.5,0.1-0.7c11.6-0.6,22.3,3.3,30.6,10.2c-6.3-9.9-17.3-16.3-29.6-16.3
	c4-14.3,18.1-23.6,33.1-21.3c12,1.9,21.2,10.8,24.1,21.9c0.6-14.8-10-28.1-25-30.4c-16.1-2.5-31.3,8.5-33.9,24.7
	c-0.3,1.8-0.4,3.6-0.4,5.2c-0.4,0-0.9,0-1.3,0.1C156,3356.4,145.1,3365.3,140.4,3377.2z M343.2,3238.9c-13.1,0-25.4,3-36.4,8.4
	c-6.8-6-15.6-9.8-25.4-9.8c-6.6,0-12.8,1.7-18.2,4.6c-6.1-12.8-19.2-21.8-34.4-21.8c-15.5,0-28.8,9.2-34.8,22.6
	c-9.4-6.3-20.8-10-33-10c-32.6,0-59.2,26.6-59.2,59.2c0,4.8,0.6,9.5,1.7,14c0-0.4,0-0.9,0-1.3c0-32.6,26.6-59.2,59.2-59.2
	c10.3,0,20,2.7,28.4,7.3c-0.3,1.9-0.4,3.7-0.4,5.7c0,1.9,0.2,3.7,0.4,5.5c0.5-3.4,1.4-6.6,2.8-9.6c1.2-2.9,2.8-5.6,4.8-8.1
	c6.9-9.1,17.9-14.9,30.2-14.9c11.8,0,22.5,5.4,29.4,14c-9.1,7-14.9,18-14.9,30.2c0,2,0.2,4.1,0.5,6c2-12,9.5-22.1,19.8-27.6
	c0.9-0.5,1.9-1,2.8-1.3c4.6-2,9.6-3.1,14.9-3.1c5.5,0,10.8,1.2,15.6,3.4c-13.3,9.1-23.9,21.9-30.2,36.9c9.5-14,23.2-25.1,39.2-31.2
	c2.7-1,5.3-1.9,8.1-2.7c6.8-1.9,14-2.8,21.4-2.8c43.4,0,79.1,33.5,82.6,76c0.2,2.3,0.3,4.5,0.3,6.8c0,0.9,0,1.7-0.1,2.6
	c-0.4,10.3-2.5,20.2-6.3,29.2c5.5-8.1,9.5-17.2,11.9-27.1c12.8,6.1,21.7,19.2,21.7,34.3c0,5.4-1.2,10.6-3.2,15.2
	c5.1-6.5,8.2-14.7,8.2-23.5c0-16.4-10.4-30.3-24.9-35.7c0.4-3.1,0.5-6.2,0.5-9.4C426.1,3276.2,388.9,3238.9,343.2,3238.9z
	 M218.1,3734.6c-16.5,3.7-27.7,18.4-27.7,34.7c6.9-10,17.4-17.4,30.1-20.3c13.7-3.1,27.4-0.3,38.3,6.8
	C252.4,3740,235.4,3730.7,218.1,3734.6z M368.3,3731.6c12.9,8.8,21,22.1,23.6,36.4c2-16.2-4.8-33-19.2-42.8
	c-14.3-9.8-32.4-10-46.7-2.2C340.2,3720.2,355.4,3722.8,368.3,3731.6z M134.1,3715.2c-11.6,7.1-17.6,19.8-16.7,32.5
	c2.6-11,9.4-21.1,19.8-27.4c10.5-6.4,22.5-7.8,33.5-5.1C159.9,3708.6,145.8,3708.1,134.1,3715.2z M343.2,3694
	c-13.1,0-25.4,3-36.4,8.4c-6.8-6-15.6-9.8-25.4-9.8c-6.6,0-12.8,1.7-18.2,4.6c-6.1-12.8-19.2-21.8-34.4-21.8
	c-15.5,0-28.8,9.2-34.8,22.6c-9.4-6.3-20.8-10-33-10c-32.6,0-59.2,26.6-59.2,59.2c0,4.8,0.6,9.5,1.7,14c0-0.4,0-0.9,0-1.3
	c0-32.6,26.6-59.2,59.2-59.2c10.3,0,20,2.7,28.4,7.3c-0.3,1.9-0.4,3.7-0.4,5.7c0,1.9,0.2,3.7,0.4,5.5c0.5-3.4,1.4-6.6,2.8-9.6
	c1.2-2.9,2.8-5.6,4.8-8.1c6.9-9.1,17.9-14.9,30.2-14.9c11.8,0,22.5,5.4,29.4,14c-9.1,7-14.9,18-14.9,30.2c0,2,0.2,4.1,0.5,6
	c2-12,9.5-22.1,19.8-27.6c0.9-0.5,1.9-1,2.8-1.3c4.6-2,9.6-3.1,14.9-3.1c5.5,0,10.8,1.2,15.6,3.4c-13.3,9.1-23.9,21.9-30.2,36.9
	c9.5-14,23.2-25.1,39.2-31.2c2.7-1,5.3-1.9,8.1-2.7c6.8-1.9,14-2.8,21.4-2.8c43.4,0,79.1,33.5,82.6,76c0.2,2.3,0.3,4.5,0.3,6.8
	c0,0.9,0,1.7-0.1,2.6c-0.4,10.3-2.5,20.2-6.3,29.2c5.5-8.1,9.5-17.2,11.9-27.1c12.8,6.1,21.7,19.2,21.7,34.3
	c0,5.4-1.2,10.6-3.2,15.2c5.1-6.5,8.2-14.7,8.2-23.5c0-16.4-10.4-30.3-24.9-35.7c0.4-3.1,0.5-6.2,0.5-9.4
	C426.1,3731.3,388.9,3694,343.2,3694z M377,3790.8c-14.7-6.6-31.5-2.3-41.4,9.3c-0.6-0.4-1.3-0.6-2-1c-15.9-6.9-33.7-3.9-46.3,6.4
	c13.4-5.3,28.9-5.6,43.2,0.7c14.3,6.3,24.7,17.9,29.9,31.5c-0.9-14.9-9.2-29-22.9-36.6c10.6-2.8,22.1-2,32.9,2.8
	c12.9,5.7,22.1,16.2,26.7,28.4C401.2,3815.6,393.2,3798,377,3790.8z M320.2,3781c-5.7-11.5-17.4-19.4-31-19.6
	c-13.6-0.2-25.4,7.5-31.4,18.8c8.1-8,19.1-12.9,31.3-12.7C301.2,3767.6,312.3,3772.8,320.2,3781z M140.4,3832.3
	c7.2-8.8,17.6-14.8,29.8-16c0.5-0.1,1.1-0.1,1.6-0.1c0.1,0.3,0.1,0.4,0.2,0.7c0-0.3,0-0.5,0.1-0.7c11.6-0.6,22.3,3.3,30.6,10.2
	c-6.3-9.9-17.3-16.3-29.6-16.3c4-14.3,18.1-23.6,33.1-21.3c12,1.9,21.2,10.8,24.1,21.9c0.6-14.8-10-28.1-25-30.4
	c-16.1-2.5-31.3,8.5-33.9,24.7c-0.3,1.8-0.4,3.6-0.4,5.2c-0.4,0-0.9,0-1.3,0.1C156,3811.6,145.1,3820.4,140.4,3832.3z M421.5,3844.8
	c-14,0-26.1,7.6-32.8,18.8c6.9-7.5,16.9-12.2,27.8-12.2c21.1,0,38.1,17.2,38.1,38.1c0,7.1-2,13.7-5.3,19.4c6.4-6.8,10.3-16,10.3-26
	C459.6,3861.9,442.5,3844.8,421.5,3844.8z M68,3843.4c10.5-6.4,22.5-7.8,33.5-5.1c-10.8-6.7-25.1-7.2-36.6-0.1
	c-11.6,7.1-17.6,19.8-16.7,32.5C50.8,3859.7,57.6,3849.8,68,3843.4z M105.9,3774.1c9.5,0,17.9,4.4,23.3,11.5
	c-9.3,5.3-13.5,16.3-10.7,26.2c2.5-7.4,7.7-13.9,15.1-17.9c7.9-4.4,16.9-5,25-2.5c-6.4-8.2-17.7-11.1-27.4-6.8
	c-4.4-10.9-15-18.8-27.5-18.8c-16.4,0-29.6,13.2-29.6,29.6c0,4.2,0.9,8.1,2.4,11.7c-0.1-1.2-0.2-2.2-0.2-3.4
	C76.3,3787.4,89.6,3774.1,105.9,3774.1z M134.1,4170.3c-11.6,7.1-17.6,19.8-16.7,32.5c2.6-11,9.4-21.1,19.8-27.4
	c10.5-6.4,22.5-7.8,33.5-5.1C159.9,4163.7,145.8,4163.2,134.1,4170.3z M105.9,4229.2c9.5,0,17.9,4.4,23.3,11.5
	c-9.3,5.3-13.5,16.3-10.7,26.2c2.5-7.4,7.7-13.9,15.1-17.9c7.9-4.4,16.9-5,25-2.5c-6.4-8.2-17.7-11.1-27.4-6.8
	c-4.4-10.9-15-18.8-27.5-18.8c-16.4,0-29.6,13.2-29.6,29.6c0,4.2,0.9,8.1,2.4,11.7c-0.1-1.2-0.2-2.2-0.2-3.4
	C76.3,4242.5,89.6,4229.2,105.9,4229.2z M377,4245.9c-14.7-6.6-31.5-2.3-41.4,9.3c-0.6-0.4-1.3-0.6-2-1c-15.9-6.9-33.7-3.9-46.3,6.4
	c13.4-5.3,28.9-5.6,43.2,0.7c14.3,6.3,24.7,17.9,29.9,31.5c-0.9-14.9-9.2-29-22.9-36.6c10.6-2.8,22.1-2,32.9,2.8
	c12.9,5.7,22.1,16.2,26.7,28.4C401.2,4270.8,393.2,4253.1,377,4245.9z M140.4,4287.4c7.2-8.8,17.6-14.8,29.8-16
	c0.5-0.1,1.1-0.1,1.6-0.1c0.1,0.3,0.1,0.4,0.2,0.7c0-0.3,0-0.5,0.1-0.7c11.6-0.6,22.3,3.3,30.6,10.2c-6.3-9.9-17.3-16.3-29.6-16.3
	c4-14.3,18.1-23.6,33.1-21.3c12,1.9,21.2,10.8,24.1,21.9c0.6-14.8-10-28.1-25-30.4c-16.1-2.5-31.3,8.5-33.9,24.7
	c-0.3,1.8-0.4,3.6-0.4,5.2c-0.4,0-0.9,0-1.3,0.1C156,4266.7,145.1,4275.6,140.4,4287.4z M218.1,4189.7
	c-16.5,3.7-27.7,18.4-27.7,34.7c6.9-10,17.4-17.4,30.1-20.3c13.7-3.1,27.4-0.3,38.3,6.8C252.4,4195.1,235.4,4185.8,218.1,4189.7z
	 M320.2,4236.1c-5.7-11.5-17.4-19.4-31-19.6c-13.6-0.2-25.4,7.5-31.4,18.8c8.1-8,19.1-12.9,31.3-12.7
	C301.2,4222.8,312.3,4227.9,320.2,4236.1z M343.2,4149.2c-13.1,0-25.4,3-36.4,8.4c-6.8-6-15.6-9.8-25.4-9.8
	c-6.6,0-12.8,1.7-18.2,4.6c-6.1-12.8-19.2-21.8-34.4-21.8c-15.5,0-28.8,9.2-34.8,22.6c-9.4-6.3-20.8-10-33-10
	c-32.6,0-59.2,26.6-59.2,59.2c0,4.8,0.6,9.5,1.7,14c0-0.4,0-0.9,0-1.3c0-32.6,26.6-59.2,59.2-59.2c10.3,0,20,2.7,28.4,7.3
	c-0.3,1.9-0.4,3.7-0.4,5.7c0,1.9,0.2,3.7,0.4,5.5c0.5-3.4,1.4-6.6,2.8-9.6c1.2-2.9,2.8-5.6,4.8-8.1c6.9-9.1,17.9-14.9,30.2-14.9
	c11.8,0,22.5,5.4,29.4,14c-9.1,7-14.9,18-14.9,30.2c0,2,0.2,4.1,0.5,6c2-12,9.5-22.1,19.8-27.6c0.9-0.5,1.9-1,2.8-1.3
	c4.6-2,9.6-3.1,14.9-3.1c5.5,0,10.8,1.2,15.6,3.4c-13.3,9.1-23.9,21.9-30.2,36.9c9.5-14,23.2-25.1,39.2-31.2c2.7-1,5.3-1.9,8.1-2.7
	c6.8-1.9,14-2.8,21.4-2.8c43.4,0,79.1,33.5,82.6,76c0.2,2.3,0.3,4.5,0.3,6.8c0,0.9,0,1.7-0.1,2.6c-0.4,10.3-2.5,20.2-6.3,29.2
	c5.5-8.1,9.5-17.2,11.9-27.1c12.8,6.1,21.7,19.2,21.7,34.3c0,5.4-1.2,10.6-3.2,15.2c5.1-6.5,8.2-14.7,8.2-23.5
	c0-16.4-10.4-30.3-24.9-35.7c0.4-3.1,0.5-6.2,0.5-9.4C426.1,4186.4,388.9,4149.2,343.2,4149.2z M368.3,4186.7
	c12.9,8.8,21,22.1,23.6,36.4c2-16.2-4.8-33-19.2-42.8c-14.3-9.8-32.4-10-46.7-2.2C340.2,4175.3,355.4,4177.9,368.3,4186.7z
	 M421.5,4299.9c-14,0-26.1,7.6-32.8,18.8c6.9-7.5,16.9-12.2,27.8-12.2c21.1,0,38.1,17.2,38.1,38.1c0,7.1-2,13.7-5.3,19.4
	c6.4-6.8,10.3-16,10.3-26C459.6,4317,442.5,4299.9,421.5,4299.9z M68,4298.5c10.5-6.4,22.5-7.8,33.5-5.1
	c-10.8-6.7-25.1-7.2-36.6-0.1c-11.6,7.1-17.6,19.8-16.7,32.5C50.8,4314.8,57.6,4304.9,68,4298.5z M105.9,4684.4
	c9.5,0,17.9,4.4,23.3,11.5c-9.3,5.3-13.5,16.3-10.7,26.2c2.5-7.4,7.7-13.9,15.1-17.9c7.9-4.4,16.9-5,25-2.5
	c-6.4-8.2-17.7-11.1-27.4-6.8c-4.4-10.9-15-18.8-27.5-18.8c-16.4,0-29.6,13.2-29.6,29.6c0,4.2,0.9,8.1,2.4,11.7
	c-0.1-1.2-0.2-2.2-0.2-3.4C76.3,4697.6,89.6,4684.4,105.9,4684.4z M140.4,4742.5c7.2-8.8,17.6-14.8,29.8-16c0.5-0.1,1.1-0.1,1.6-0.1
	c0.1,0.3,0.1,0.4,0.2,0.7c0-0.3,0-0.5,0.1-0.7c11.6-0.6,22.3,3.3,30.6,10.2c-6.3-9.9-17.3-16.3-29.6-16.3
	c4-14.3,18.1-23.6,33.1-21.3c12,1.9,21.2,10.8,24.1,21.9c0.6-14.8-10-28.1-25-30.4c-16.1-2.5-31.3,8.5-33.9,24.7
	c-0.3,1.8-0.4,3.6-0.4,5.2c-0.4,0-0.9,0-1.3,0.1C156,4721.8,145.1,4730.7,140.4,4742.5z M421.5,4755c-14,0-26.1,7.6-32.8,18.8
	c6.9-7.5,16.9-12.2,27.8-12.2c21.1,0,38.1,17.2,38.1,38.1c0,7.1-2,13.7-5.3,19.4c6.4-6.8,10.3-16,10.3-26
	C459.6,4772.1,442.5,4755,421.5,4755z M68,4753.6c10.5-6.4,22.5-7.8,33.5-5.1c-10.8-6.7-25.1-7.2-36.6-0.1
	c-11.6,7.1-17.6,19.8-16.7,32.5C50.8,4770,57.6,4760,68,4753.6z M218.1,4644.8c-16.5,3.7-27.7,18.4-27.7,34.7
	c6.9-10,17.4-17.4,30.1-20.3c13.7-3.1,27.4-0.3,38.3,6.8C252.4,4650.2,235.4,4640.9,218.1,4644.8z M343.2,4604.3
	c-13.1,0-25.4,3-36.4,8.4c-6.8-6-15.6-9.8-25.4-9.8c-6.6,0-12.8,1.7-18.2,4.6c-6.1-12.8-19.2-21.8-34.4-21.8
	c-15.5,0-28.8,9.2-34.8,22.6c-9.4-6.3-20.8-10-33-10c-32.6,0-59.2,26.6-59.2,59.2c0,4.8,0.6,9.5,1.7,14c0-0.4,0-0.9,0-1.3
	c0-32.6,26.6-59.2,59.2-59.2c10.3,0,20,2.7,28.4,7.3c-0.3,1.9-0.4,3.7-0.4,5.7c0,1.9,0.2,3.7,0.4,5.5c0.5-3.4,1.4-6.6,2.8-9.6
	c1.2-2.9,2.8-5.6,4.8-8.1c6.9-9.1,17.9-14.9,30.2-14.9c11.8,0,22.5,5.4,29.4,14c-9.1,7-14.9,18-14.9,30.2c0,2,0.2,4.1,0.5,6
	c2-12,9.5-22.1,19.8-27.6c0.9-0.5,1.9-1,2.8-1.3c4.6-2,9.6-3.1,14.9-3.1c5.5,0,10.8,1.2,15.6,3.4c-13.3,9.1-23.9,21.9-30.2,36.9
	c9.5-14,23.2-25.1,39.2-31.2c2.7-1,5.3-1.9,8.1-2.7c6.8-1.9,14-2.8,21.4-2.8c43.4,0,79.1,33.5,82.6,76c0.2,2.3,0.3,4.5,0.3,6.8
	c0,0.9,0,1.7-0.1,2.6c-0.4,10.3-2.5,20.2-6.3,29.2c5.5-8.1,9.5-17.2,11.9-27.1c12.8,6.1,21.7,19.2,21.7,34.3
	c0,5.4-1.2,10.6-3.2,15.2c5.1-6.5,8.2-14.7,8.2-23.5c0-16.4-10.4-30.3-24.9-35.7c0.4-3.1,0.5-6.2,0.5-9.4
	C426.1,4641.5,388.9,4604.3,343.2,4604.3z M377,4701c-14.7-6.6-31.5-2.3-41.4,9.3c-0.6-0.4-1.3-0.6-2-1c-15.9-6.9-33.7-3.9-46.3,6.4
	c13.4-5.3,28.9-5.6,43.2,0.7c14.3,6.3,24.7,17.9,29.9,31.5c-0.9-14.9-9.2-29-22.9-36.6c10.6-2.8,22.1-2,32.9,2.8
	c12.9,5.7,22.1,16.2,26.7,28.4C401.2,4725.9,393.2,4708.2,377,4701z M368.3,4641.8c12.9,8.8,21,22.1,23.6,36.4
	c2-16.2-4.8-33-19.2-42.8c-14.3-9.8-32.4-10-46.7-2.2C340.2,4630.4,355.4,4633,368.3,4641.8z M320.2,4691.2
	c-5.7-11.5-17.4-19.4-31-19.6c-13.6-0.2-25.4,7.5-31.4,18.8c8.1-8,19.1-12.9,31.3-12.7C301.2,4677.9,312.3,4683,320.2,4691.2z
	 M134.1,4625.4c-11.6,7.1-17.6,19.8-16.7,32.5c2.6-11,9.4-21.1,19.8-27.4c10.5-6.4,22.5-7.8,33.5-5.1
	C159.9,4618.8,145.8,4618.3,134.1,4625.4z M343.2,5059.4c-13.1,0-25.4,3-36.4,8.4c-6.8-6-15.6-9.8-25.4-9.8
	c-6.6,0-12.8,1.7-18.2,4.6c-6.1-12.8-19.2-21.8-34.4-21.8c-15.5,0-28.8,9.2-34.8,22.6c-9.4-6.3-20.8-10-33-10
	c-32.6,0-59.2,26.6-59.2,59.2c0,4.8,0.6,9.5,1.7,14c0-0.4,0-0.9,0-1.3c0-32.6,26.6-59.2,59.2-59.2c10.3,0,20,2.7,28.4,7.3
	c-0.3,1.9-0.4,3.7-0.4,5.7c0,1.9,0.2,3.7,0.4,5.5c0.5-3.4,1.4-6.6,2.8-9.6c1.2-2.9,2.8-5.6,4.8-8.1c6.9-9.1,17.9-14.9,30.2-14.9
	c11.8,0,22.5,5.4,29.4,14c-9.1,7-14.9,18-14.9,30.2c0,2,0.2,4.1,0.5,6c2-12,9.5-22.1,19.8-27.6c0.9-0.5,1.9-1,2.8-1.3
	c4.6-2,9.6-3.1,14.9-3.1c5.5,0,10.8,1.2,15.6,3.4c-13.3,9.1-23.9,21.9-30.2,36.9c9.5-14,23.2-25.1,39.2-31.2c2.7-1,5.3-1.9,8.1-2.7
	c6.8-1.9,14-2.8,21.4-2.8c43.4,0,79.1,33.5,82.6,76c0.2,2.3,0.3,4.5,0.3,6.8c0,0.9,0,1.7-0.1,2.6c-0.4,10.3-2.5,20.2-6.3,29.2
	c5.5-8.1,9.5-17.2,11.9-27.1c12.8,6.1,21.7,19.2,21.7,34.3c0,5.4-1.2,10.6-3.2,15.2c5.1-6.5,8.2-14.7,8.2-23.5
	c0-16.4-10.4-30.3-24.9-35.7c0.4-3.1,0.5-6.2,0.5-9.4C426.1,5096.6,388.9,5059.4,343.2,5059.4z M140.4,5197.6
	c7.2-8.8,17.6-14.8,29.8-16c0.5-0.1,1.1-0.1,1.6-0.1c0.1,0.3,0.1,0.4,0.2,0.7c0-0.3,0-0.5,0.1-0.7c11.6-0.6,22.3,3.3,30.6,10.2
	c-6.3-9.9-17.3-16.3-29.6-16.3c4-14.3,18.1-23.6,33.1-21.3c12,1.9,21.2,10.8,24.1,21.9c0.6-14.8-10-28.1-25-30.4
	c-16.1-2.5-31.3,8.5-33.9,24.7c-0.3,1.8-0.4,3.6-0.4,5.2c-0.4,0-0.9,0-1.3,0.1C156,5176.9,145.1,5185.8,140.4,5197.6z M105.9,5139.5
	c9.5,0,17.9,4.4,23.3,11.5c-9.3,5.3-13.5,16.3-10.7,26.2c2.5-7.4,7.7-13.9,15.1-17.9c7.9-4.4,16.9-5,25-2.5
	c-6.4-8.2-17.7-11.1-27.4-6.8c-4.4-10.9-15-18.8-27.5-18.8c-16.4,0-29.6,13.2-29.6,29.6c0,4.2,0.9,8.1,2.4,11.7
	c-0.1-1.2-0.2-2.2-0.2-3.4C76.3,5152.7,89.6,5139.5,105.9,5139.5z M421.5,5210.1c-14,0-26.1,7.6-32.8,18.8
	c6.9-7.5,16.9-12.2,27.8-12.2c21.1,0,38.1,17.2,38.1,38.1c0,7.1-2,13.7-5.3,19.4c6.4-6.8,10.3-16,10.3-26
	C459.6,5227.2,442.5,5210.1,421.5,5210.1z M68,5208.7c10.5-6.4,22.5-7.8,33.5-5.1c-10.8-6.7-25.1-7.2-36.6-0.1
	c-11.6,7.1-17.6,19.8-16.7,32.5C50.8,5225.1,57.6,5215.1,68,5208.7z M134.1,5080.5c-11.6,7.1-17.6,19.8-16.7,32.5
	c2.6-11,9.4-21.1,19.8-27.4c10.5-6.4,22.5-7.8,33.5-5.1C159.9,5074,145.8,5073.4,134.1,5080.5z M377,5156.1
	c-14.7-6.6-31.5-2.3-41.4,9.3c-0.6-0.4-1.3-0.6-2-1c-15.9-6.9-33.7-3.9-46.3,6.4c13.4-5.3,28.9-5.6,43.2,0.7
	c14.3,6.3,24.7,17.9,29.9,31.5c-0.9-14.9-9.2-29-22.9-36.6c10.6-2.8,22.1-2,32.9,2.8c12.9,5.7,22.1,16.2,26.7,28.4
	C401.2,5181,393.2,5163.3,377,5156.1z M320.2,5146.3c-5.7-11.5-17.4-19.4-31-19.6c-13.6-0.2-25.4,7.5-31.4,18.8
	c8.1-8,19.1-12.9,31.3-12.7C301.2,5133,312.3,5138.1,320.2,5146.3z M368.3,5096.9c12.9,8.8,21,22.1,23.6,36.4
	c2-16.2-4.8-33-19.2-42.8c-14.3-9.8-32.4-10-46.7-2.2C340.2,5085.5,355.4,5088.1,368.3,5096.9z M218.1,5099.9
	c-16.5,3.7-27.7,18.4-27.7,34.7c6.9-10,17.4-17.4,30.1-20.3c13.7-3.1,27.4-0.3,38.3,6.8C252.4,5105.3,235.4,5096,218.1,5099.9z
	 M421.5,5665.2c-14,0-26.1,7.6-32.8,18.8c6.9-7.5,16.9-12.2,27.8-12.2c21.1,0,38.1,17.2,38.1,38.1c0,7.1-2,13.7-5.3,19.4
	c6.4-6.8,10.3-16,10.3-26C459.6,5682.3,442.5,5665.2,421.5,5665.2z M343.2,5514.5c-13.1,0-25.4,3-36.4,8.4c-6.8-6-15.6-9.8-25.4-9.8
	c-6.6,0-12.8,1.7-18.2,4.6c-6.1-12.8-19.2-21.8-34.4-21.8c-15.5,0-28.8,9.2-34.8,22.6c-9.4-6.3-20.8-10-33-10
	c-32.6,0-59.2,26.6-59.2,59.2c0,4.8,0.6,9.5,1.7,14c0-0.4,0-0.9,0-1.3c0-32.6,26.6-59.2,59.2-59.2c10.3,0,20,2.7,28.4,7.3
	c-0.3,1.9-0.4,3.7-0.4,5.7c0,1.9,0.2,3.7,0.4,5.5c0.5-3.4,1.4-6.6,2.8-9.6c1.2-2.9,2.8-5.6,4.8-8.1c6.9-9.1,17.9-14.9,30.2-14.9
	c11.8,0,22.5,5.4,29.4,14c-9.1,7-14.9,18-14.9,30.2c0,2,0.2,4.1,0.5,6c2-12,9.5-22.1,19.8-27.6c0.9-0.5,1.9-1,2.8-1.3
	c4.6-2,9.6-3.1,14.9-3.1c5.5,0,10.8,1.2,15.6,3.4c-13.3,9.1-23.9,21.9-30.2,36.9c9.5-14,23.2-25.1,39.2-31.2c2.7-1,5.3-1.9,8.1-2.7
	c6.8-1.9,14-2.8,21.4-2.8c43.4,0,79.1,33.5,82.6,76c0.2,2.3,0.3,4.5,0.3,6.8c0,0.9,0,1.7-0.1,2.6c-0.4,10.3-2.5,20.2-6.3,29.2
	c5.5-8.1,9.5-17.2,11.9-27.1c12.8,6.1,21.7,19.2,21.7,34.3c0,5.4-1.2,10.6-3.2,15.2c5.1-6.5,8.2-14.7,8.2-23.5
	c0-16.4-10.4-30.3-24.9-35.7c0.4-3.1,0.5-6.2,0.5-9.4C426.1,5551.7,388.9,5514.5,343.2,5514.5z M68,5663.8
	c10.5-6.4,22.5-7.8,33.5-5.1c-10.8-6.7-25.1-7.2-36.6-0.1c-11.6,7.1-17.6,19.8-16.7,32.5C50.8,5680.2,57.6,5670.2,68,5663.8z
	 M377,5611.2c-14.7-6.6-31.5-2.3-41.4,9.3c-0.6-0.4-1.3-0.6-2-1c-15.9-6.9-33.7-3.9-46.3,6.4c13.4-5.3,28.9-5.6,43.2,0.7
	c14.3,6.3,24.7,17.9,29.9,31.5c-0.9-14.9-9.2-29-22.9-36.6c10.6-2.8,22.1-2,32.9,2.8c12.9,5.7,22.1,16.2,26.7,28.4
	C401.2,5636.1,393.2,5618.4,377,5611.2z M320.2,5601.4c-5.7-11.5-17.4-19.4-31-19.6c-13.6-0.2-25.4,7.5-31.4,18.8
	c8.1-8,19.1-12.9,31.3-12.7C301.2,5588.1,312.3,5593.2,320.2,5601.4z M218.1,5555c-16.5,3.7-27.7,18.4-27.7,34.7
	c6.9-10,17.4-17.4,30.1-20.3c13.7-3.1,27.4-0.3,38.3,6.8C252.4,5560.4,235.4,5551.1,218.1,5555z M105.9,5594.6
	c9.5,0,17.9,4.4,23.3,11.5c-9.3,5.3-13.5,16.3-10.7,26.2c2.5-7.4,7.7-13.9,15.1-17.9c7.9-4.4,16.9-5,25-2.5
	c-6.4-8.2-17.7-11.1-27.4-6.8c-4.4-10.9-15-18.8-27.5-18.8c-16.4,0-29.6,13.2-29.6,29.6c0,4.2,0.9,8.1,2.4,11.7
	c-0.1-1.2-0.2-2.2-0.2-3.4C76.3,5607.8,89.6,5594.6,105.9,5594.6z M140.4,5652.7c7.2-8.8,17.6-14.8,29.8-16c0.5-0.1,1.1-0.1,1.6-0.1
	c0.1,0.3,0.1,0.4,0.2,0.7c0-0.3,0-0.5,0.1-0.7c11.6-0.6,22.3,3.3,30.6,10.2c-6.3-9.9-17.3-16.3-29.6-16.3
	c4-14.3,18.1-23.6,33.1-21.3c12,1.9,21.2,10.8,24.1,21.9c0.6-14.8-10-28.1-25-30.4c-16.1-2.5-31.3,8.5-33.9,24.7
	c-0.3,1.8-0.4,3.6-0.4,5.2c-0.4,0-0.9,0-1.3,0.1C156,5632,145.1,5640.9,140.4,5652.7z M368.3,5552c12.9,8.8,21,22.1,23.6,36.4
	c2-16.2-4.8-33-19.2-42.8c-14.3-9.8-32.4-10-46.7-2.2C340.2,5540.6,355.4,5543.2,368.3,5552z M134.1,5535.6
	c-11.6,7.1-17.6,19.8-16.7,32.5c2.6-11,9.4-21.1,19.8-27.4c10.5-6.4,22.5-7.8,33.5-5.1C159.9,5529.1,145.8,5528.5,134.1,5535.6z
	 M343.2,5969.6c-13.1,0-25.4,3-36.4,8.4c-6.8-6-15.6-9.8-25.4-9.8c-6.6,0-12.8,1.7-18.2,4.6c-6.1-12.8-19.2-21.8-34.4-21.8
	c-15.5,0-28.8,9.2-34.8,22.6c-9.4-6.3-20.8-10-33-10c-32.6,0-59.2,26.6-59.2,59.2c0,4.8,0.6,9.5,1.7,14c0-0.4,0-0.9,0-1.3
	c0-32.6,26.6-59.2,59.2-59.2c10.3,0,20,2.7,28.4,7.3c-0.3,1.9-0.4,3.7-0.4,5.7c0,1.9,0.2,3.7,0.4,5.5c0.5-3.4,1.4-6.6,2.8-9.6
	c1.2-2.9,2.8-5.6,4.8-8.1c6.9-9.1,17.9-14.9,30.2-14.9c11.8,0,22.5,5.4,29.4,14c-9.1,7-14.9,18-14.9,30.2c0,2,0.2,4.1,0.5,6
	c2-12,9.5-22.1,19.8-27.6c0.9-0.5,1.9-1,2.8-1.3c4.6-2,9.6-3.1,14.9-3.1c5.5,0,10.8,1.2,15.6,3.4c-13.3,9.1-23.9,21.9-30.2,36.9
	c9.5-14,23.2-25.1,39.2-31.2c2.7-1,5.3-1.9,8.1-2.7c6.8-1.9,14-2.8,21.4-2.8c43.4,0,79.1,33.5,82.6,76c0.2,2.3,0.3,4.5,0.3,6.8
	c0,0.9,0,1.7-0.1,2.6c-0.4,10.3-2.5,20.2-6.3,29.2c5.5-8.1,9.5-17.2,11.9-27.1c12.8,6.1,21.7,19.2,21.7,34.3
	c0,5.4-1.2,10.6-3.2,15.2c5.1-6.5,8.2-14.7,8.2-23.5c0-16.4-10.4-30.3-24.9-35.7c0.4-3.1,0.5-6.2,0.5-9.4
	C426.1,6006.8,388.9,5969.6,343.2,5969.6z M421.5,6120.4c-14,0-26.1,7.6-32.8,18.8c6.9-7.5,16.9-12.2,27.8-12.2
	c21.1,0,38.1,17.2,38.1,38.1c0,7.1-2,13.7-5.3,19.4c6.4-6.8,10.3-16,10.3-26C459.6,6137.4,442.5,6120.4,421.5,6120.4z M377,6066.3
	c-14.7-6.6-31.5-2.3-41.4,9.3c-0.6-0.4-1.3-0.6-2-1c-15.9-6.9-33.7-3.9-46.3,6.4c13.4-5.3,28.9-5.6,43.2,0.7
	c14.3,6.3,24.7,17.9,29.9,31.5c-0.9-14.9-9.2-29-22.9-36.6c10.6-2.8,22.1-2,32.9,2.8c12.9,5.7,22.1,16.2,26.7,28.4
	C401.2,6091.2,393.2,6073.5,377,6066.3z M320.2,6056.5c-5.7-11.5-17.4-19.4-31-19.6c-13.6-0.2-25.4,7.5-31.4,18.8
	c8.1-8,19.1-12.9,31.3-12.7C301.2,6043.2,312.3,6048.4,320.2,6056.5z M218.1,6010.1c-16.5,3.7-27.7,18.4-27.7,34.7
	c6.9-10,17.4-17.4,30.1-20.3c13.7-3.1,27.4-0.3,38.3,6.8C252.4,6015.6,235.4,6006.2,218.1,6010.1z M134.1,5990.8
	c-11.6,7.1-17.6,19.8-16.7,32.5c2.6-11,9.4-21.1,19.8-27.4c10.5-6.4,22.5-7.8,33.5-5.1C159.9,5984.2,145.8,5983.6,134.1,5990.8z
	 M368.3,6007.1c12.9,8.8,21,22.1,23.6,36.4c2-16.2-4.8-33-19.2-42.8c-14.3-9.8-32.4-10-46.7-2.2
	C340.2,5995.7,355.4,5998.3,368.3,6007.1z M68,6118.9c10.5-6.4,22.5-7.8,33.5-5.1c-10.8-6.7-25.1-7.2-36.6-0.1
	c-11.6,7.1-17.6,19.8-16.7,32.5C50.8,6135.3,57.6,6125.3,68,6118.9z M105.9,6049.7c9.5,0,17.9,4.4,23.3,11.5
	c-9.3,5.3-13.5,16.3-10.7,26.2c2.5-7.4,7.7-13.9,15.1-17.9c7.9-4.4,16.9-5,25-2.5c-6.4-8.2-17.7-11.1-27.4-6.8
	c-4.4-10.9-15-18.8-27.5-18.8c-16.4,0-29.6,13.2-29.6,29.6c0,4.2,0.9,8.1,2.4,11.7c-0.1-1.2-0.2-2.2-0.2-3.4
	C76.3,6062.9,89.6,6049.7,105.9,6049.7z M140.4,6107.8c7.2-8.8,17.6-14.8,29.8-16c0.5-0.1,1.1-0.1,1.6-0.1c0.1,0.3,0.1,0.4,0.2,0.7
	c0-0.3,0-0.5,0.1-0.7c11.6-0.6,22.3,3.3,30.6,10.2c-6.3-9.9-17.3-16.3-29.6-16.3c4-14.3,18.1-23.6,33.1-21.3
	c12,1.9,21.2,10.8,24.1,21.9c0.6-14.8-10-28.1-25-30.4c-16.1-2.5-31.3,8.5-33.9,24.7c-0.3,1.8-0.4,3.6-0.4,5.2c-0.4,0-0.9,0-1.3,0.1
	C156,6087.1,145.1,6096,140.4,6107.8z M421.5,6575.5c-14,0-26.1,7.6-32.8,18.8c6.9-7.5,16.9-12.2,27.8-12.2
	c21.1,0,38.1,17.2,38.1,38.1c0,7.1-2,13.7-5.3,19.4c6.4-6.8,10.3-16,10.3-26C459.6,6592.5,442.5,6575.5,421.5,6575.5z M343.2,6424.7
	c-13.1,0-25.4,3-36.4,8.4c-6.8-6-15.6-9.8-25.4-9.8c-6.6,0-12.8,1.7-18.2,4.6c-6.1-12.8-19.2-21.8-34.4-21.8
	c-15.5,0-28.8,9.2-34.8,22.6c-9.4-6.3-20.8-10-33-10c-32.6,0-59.2,26.6-59.2,59.2c0,4.8,0.6,9.5,1.7,14c0-0.4,0-0.9,0-1.3
	c0-32.6,26.6-59.2,59.2-59.2c10.3,0,20,2.7,28.4,7.3c-0.3,1.9-0.4,3.7-0.4,5.7c0,1.9,0.2,3.7,0.4,5.5c0.5-3.4,1.4-6.6,2.8-9.6
	c1.2-2.9,2.8-5.6,4.8-8.1c6.9-9.1,17.9-14.9,30.2-14.9c11.8,0,22.5,5.4,29.4,14c-9.1,7-14.9,18-14.9,30.2c0,2,0.2,4.1,0.5,6
	c2-12,9.5-22.1,19.8-27.6c0.9-0.5,1.9-1,2.8-1.3c4.6-2,9.6-3.1,14.9-3.1c5.5,0,10.8,1.2,15.6,3.4c-13.3,9.1-23.9,21.9-30.2,36.9
	c9.5-14,23.2-25.1,39.2-31.2c2.7-1,5.3-1.9,8.1-2.7c6.8-1.9,14-2.8,21.4-2.8c43.4,0,79.1,33.5,82.6,76c0.2,2.3,0.3,4.5,0.3,6.8
	c0,0.9,0,1.7-0.1,2.6c-0.4,10.3-2.5,20.2-6.3,29.2c5.5-8.1,9.5-17.2,11.9-27.1c12.8,6.1,21.7,19.2,21.7,34.3
	c0,5.4-1.2,10.6-3.2,15.2c5.1-6.5,8.2-14.7,8.2-23.5c0-16.4-10.4-30.3-24.9-35.7c0.4-3.1,0.5-6.2,0.5-9.4
	C426.1,6462,388.9,6424.7,343.2,6424.7z M320.2,6511.6c-5.7-11.5-17.4-19.4-31-19.6c-13.6-0.2-25.4,7.5-31.4,18.8
	c8.1-8,19.1-12.9,31.3-12.7C301.2,6498.3,312.3,6503.5,320.2,6511.6z M218.1,6465.2c-16.5,3.7-27.7,18.4-27.7,34.7
	c6.9-10,17.4-17.4,30.1-20.3c13.7-3.1,27.4-0.3,38.3,6.8C252.4,6470.7,235.4,6461.3,218.1,6465.2z M134.1,6445.9
	c-11.6,7.1-17.6,19.8-16.7,32.5c2.6-11,9.4-21.1,19.8-27.4c10.5-6.4,22.5-7.8,33.5-5.1C159.9,6439.3,145.8,6438.8,134.1,6445.9z
	 M377,6521.4c-14.7-6.6-31.5-2.3-41.4,9.3c-0.6-0.4-1.3-0.6-2-1c-15.9-6.9-33.7-3.9-46.3,6.4c13.4-5.3,28.9-5.6,43.2,0.7
	c14.3,6.3,24.7,17.9,29.9,31.5c-0.9-14.9-9.2-29-22.9-36.6c10.6-2.8,22.1-2,32.9,2.8c12.9,5.7,22.1,16.2,26.7,28.4
	C401.2,6546.3,393.2,6528.6,377,6521.4z M368.3,6462.2c12.9,8.8,21,22.1,23.6,36.4c2-16.2-4.8-33-19.2-42.8
	c-14.3-9.8-32.4-10-46.7-2.2C340.2,6450.8,355.4,6453.4,368.3,6462.2z M68,6574c10.5-6.4,22.5-7.8,33.5-5.1
	c-10.8-6.7-25.1-7.2-36.6-0.1c-11.6,7.1-17.6,19.8-16.7,32.5C50.8,6590.4,57.6,6580.4,68,6574z M140.4,6562.9
	c7.2-8.8,17.6-14.8,29.8-16c0.5-0.1,1.1-0.1,1.6-0.1c0.1,0.3,0.1,0.4,0.2,0.7c0-0.3,0-0.5,0.1-0.7c11.6-0.6,22.3,3.3,30.6,10.2
	c-6.3-9.9-17.3-16.3-29.6-16.3c4-14.3,18.1-23.6,33.1-21.3c12,1.9,21.2,10.8,24.1,21.9c0.6-14.8-10-28.1-25-30.4
	c-16.1-2.5-31.3,8.5-33.9,24.7c-0.3,1.8-0.4,3.6-0.4,5.2c-0.4,0-0.9,0-1.3,0.1C156,6542.2,145.1,6551.1,140.4,6562.9z M105.9,6504.8
	c9.5,0,17.9,4.4,23.3,11.5c-9.3,5.3-13.5,16.3-10.7,26.2c2.5-7.4,7.7-13.9,15.1-17.9c7.9-4.4,16.9-5,25-2.5
	c-6.4-8.2-17.7-11.1-27.4-6.8c-4.4-10.9-15-18.8-27.5-18.8c-16.4,0-29.6,13.2-29.6,29.6c0,4.2,0.9,8.1,2.4,11.7
	c-0.1-1.2-0.2-2.2-0.2-3.4C76.3,6518,89.6,6504.8,105.9,6504.8z M421.5,7030.6c-14,0-26.1,7.6-32.8,18.8
	c6.9-7.5,16.9-12.2,27.8-12.2c21.1,0,38.1,17.2,38.1,38.1c0,7.1-2,13.7-5.3,19.4c6.4-6.8,10.3-16,10.3-26
	C459.6,7047.6,442.5,7030.6,421.5,7030.6z M343.2,6879.8c-13.1,0-25.4,3-36.4,8.4c-6.8-6-15.6-9.8-25.4-9.8
	c-6.6,0-12.8,1.7-18.2,4.6c-6.1-12.8-19.2-21.8-34.4-21.8c-15.5,0-28.8,9.2-34.8,22.6c-9.4-6.3-20.8-10-33-10
	c-32.6,0-59.2,26.6-59.2,59.2c0,4.8,0.6,9.5,1.7,14c0-0.4,0-0.9,0-1.3c0-32.6,26.6-59.2,59.2-59.2c10.3,0,20,2.7,28.4,7.3
	c-0.3,1.9-0.4,3.7-0.4,5.7c0,1.9,0.2,3.7,0.4,5.5c0.5-3.4,1.4-6.6,2.8-9.6c1.2-2.9,2.8-5.6,4.8-8.1c6.9-9.1,17.9-14.9,30.2-14.9
	c11.8,0,22.5,5.4,29.4,14c-9.1,7-14.9,18-14.9,30.2c0,2,0.2,4.1,0.5,6c2-12,9.5-22.1,19.8-27.6c0.9-0.5,1.9-1,2.8-1.3
	c4.6-2,9.6-3.1,14.9-3.1c5.5,0,10.8,1.2,15.6,3.4c-13.3,9.1-23.9,21.9-30.2,36.9c9.5-14,23.2-25.1,39.2-31.2c2.7-1,5.3-1.9,8.1-2.7
	c6.8-1.9,14-2.8,21.4-2.8c43.4,0,79.1,33.5,82.6,76c0.2,2.3,0.3,4.5,0.3,6.8c0,0.9,0,1.7-0.1,2.6c-0.4,10.3-2.5,20.2-6.3,29.2
	c5.5-8.1,9.5-17.2,11.9-27.1c12.8,6.1,21.7,19.2,21.7,34.3c0,5.4-1.2,10.6-3.2,15.2c5.1-6.5,8.2-14.7,8.2-23.5
	c0-16.4-10.4-30.3-24.9-35.7c0.4-3.1,0.5-6.2,0.5-9.4C426.1,6917.1,388.9,6879.8,343.2,6879.8z M68,7029.2
	c10.5-6.4,22.5-7.8,33.5-5.1c-10.8-6.7-25.1-7.2-36.6-0.1c-11.6,7.1-17.6,19.8-16.7,32.5C50.8,7045.5,57.6,7035.6,68,7029.2z
	 M320.2,6966.8c-5.7-11.5-17.4-19.4-31-19.6c-13.6-0.2-25.4,7.5-31.4,18.8c8.1-8,19.1-12.9,31.3-12.7
	C301.2,6953.4,312.3,6958.6,320.2,6966.8z M218.1,6920.4c-16.5,3.7-27.7,18.4-27.7,34.7c6.9-10,17.4-17.4,30.1-20.3
	c13.7-3.1,27.4-0.3,38.3,6.8C252.4,6925.8,235.4,6916.4,218.1,6920.4z M140.4,7018c7.2-8.8,17.6-14.8,29.8-16
	c0.5-0.1,1.1-0.1,1.6-0.1c0.1,0.3,0.1,0.4,0.2,0.7c0-0.3,0-0.5,0.1-0.7c11.6-0.6,22.3,3.3,30.6,10.2c-6.3-9.9-17.3-16.3-29.6-16.3
	c4-14.3,18.1-23.6,33.1-21.3c12,1.9,21.2,10.8,24.1,21.9c0.6-14.8-10-28.1-25-30.4c-16.1-2.5-31.3,8.5-33.9,24.7
	c-0.3,1.8-0.4,3.6-0.4,5.2c-0.4,0-0.9,0-1.3,0.1C156,6997.3,145.1,7006.2,140.4,7018z M105.9,6959.9c9.5,0,17.9,4.4,23.3,11.5
	c-9.3,5.3-13.5,16.3-10.7,26.2c2.5-7.4,7.7-13.9,15.1-17.9c7.9-4.4,16.9-5,25-2.5c-6.4-8.2-17.7-11.1-27.4-6.8
	c-4.4-10.9-15-18.8-27.5-18.8c-16.4,0-29.6,13.2-29.6,29.6c0,4.2,0.9,8.1,2.4,11.7c-0.1-1.2-0.2-2.2-0.2-3.4
	C76.3,6973.2,89.6,6959.9,105.9,6959.9z M377,6976.5c-14.7-6.6-31.5-2.3-41.4,9.3c-0.6-0.4-1.3-0.6-2-1c-15.9-6.9-33.7-3.9-46.3,6.4
	c13.4-5.3,28.9-5.6,43.2,0.7c14.3,6.3,24.7,17.9,29.9,31.5c-0.9-14.9-9.2-29-22.9-36.6c10.6-2.8,22.1-2,32.9,2.8
	c12.9,5.7,22.1,16.2,26.7,28.4C401.2,7001.4,393.2,6983.7,377,6976.5z M368.3,6917.3c12.9,8.8,21,22.1,23.6,36.4
	c2-16.2-4.8-33-19.2-42.8c-14.3-9.8-32.4-10-46.7-2.2C340.2,6906,355.4,6908.5,368.3,6917.3z M134.1,6901
	c-11.6,7.1-17.6,19.8-16.7,32.5c2.6-11,9.4-21.1,19.8-27.4c10.5-6.4,22.5-7.8,33.5-5.1C159.9,6894.4,145.8,6893.9,134.1,6901z
	 M68,7484.3c10.5-6.4,22.5-7.8,33.5-5.1c-10.8-6.7-25.1-7.2-36.6-0.1c-11.6,7.1-17.6,19.8-16.7,32.5
	C50.8,7500.6,57.6,7490.7,68,7484.3z M421.5,7485.7c-14,0-26.1,7.6-32.8,18.8c6.9-7.5,16.9-12.2,27.8-12.2
	c21.1,0,38.1,17.2,38.1,38.1c0,7.1-2,13.7-5.3,19.4c6.4-6.8,10.3-16,10.3-26C459.6,7502.8,442.5,7485.7,421.5,7485.7z M320.2,7421.9
	c-5.7-11.5-17.4-19.4-31-19.6c-13.6-0.2-25.4,7.5-31.4,18.8c8.1-8,19.1-12.9,31.3-12.7C301.2,7408.5,312.3,7413.7,320.2,7421.9z
	 M368.3,7372.4c12.9,8.8,21,22.1,23.6,36.4c2-16.2-4.8-33-19.2-42.8c-14.3-9.8-32.4-10-46.7-2.2
	C340.2,7361.1,355.4,7363.6,368.3,7372.4z M218.1,7375.5c-16.5,3.7-27.7,18.4-27.7,34.7c6.9-10,17.4-17.4,30.1-20.3
	c13.7-3.1,27.4-0.3,38.3,6.8C252.4,7380.9,235.4,7371.6,218.1,7375.5z M343.2,7334.9c-13.1,0-25.4,3-36.4,8.4
	c-6.8-6-15.6-9.8-25.4-9.8c-6.6,0-12.8,1.7-18.2,4.6c-6.1-12.8-19.2-21.8-34.4-21.8c-15.5,0-28.8,9.2-34.8,22.6
	c-9.4-6.3-20.8-10-33-10c-32.6,0-59.2,26.6-59.2,59.2c0,4.8,0.6,9.5,1.7,14c0-0.4,0-0.9,0-1.3c0-32.6,26.6-59.2,59.2-59.2
	c10.3,0,20,2.7,28.4,7.3c-0.3,1.9-0.4,3.7-0.4,5.7c0,1.9,0.2,3.7,0.4,5.5c0.5-3.4,1.4-6.6,2.8-9.6c1.2-2.9,2.8-5.6,4.8-8.1
	c6.9-9.1,17.9-14.9,30.2-14.9c11.8,0,22.5,5.4,29.4,14c-9.1,7-14.9,18-14.9,30.2c0,2,0.2,4.1,0.5,6c2-12,9.5-22.1,19.8-27.6
	c0.9-0.5,1.9-1,2.8-1.3c4.6-2,9.6-3.1,14.9-3.1c5.5,0,10.8,1.2,15.6,3.4c-13.3,9.1-23.9,21.9-30.2,36.9c9.5-14,23.2-25.1,39.2-31.2
	c2.7-1,5.3-1.9,8.1-2.7c6.8-1.9,14-2.8,21.4-2.8c43.4,0,79.1,33.5,82.6,76c0.2,2.3,0.3,4.5,0.3,6.8c0,0.9,0,1.7-0.1,2.6
	c-0.4,10.3-2.5,20.2-6.3,29.2c5.5-8.1,9.5-17.2,11.9-27.1c12.8,6.1,21.7,19.2,21.7,34.3c0,5.4-1.2,10.6-3.2,15.2
	c5.1-6.5,8.2-14.7,8.2-23.5c0-16.4-10.4-30.3-24.9-35.7c0.4-3.1,0.5-6.2,0.5-9.4C426.1,7372.2,388.9,7334.9,343.2,7334.9z
	 M140.4,7473.2c7.2-8.8,17.6-14.8,29.8-16c0.5-0.1,1.1-0.1,1.6-0.1c0.1,0.3,0.1,0.4,0.2,0.7c0-0.3,0-0.5,0.1-0.7
	c11.6-0.6,22.3,3.3,30.6,10.2c-6.3-9.9-17.3-16.3-29.6-16.3c4-14.3,18.1-23.6,33.1-21.3c12,1.9,21.2,10.8,24.1,21.9
	c0.6-14.8-10-28.1-25-30.4c-16.1-2.5-31.3,8.5-33.9,24.7c-0.3,1.8-0.4,3.6-0.4,5.2c-0.4,0-0.9,0-1.3,0.1
	C156,7452.4,145.1,7461.3,140.4,7473.2z M105.9,7415c9.5,0,17.9,4.4,23.3,11.5c-9.3,5.3-13.5,16.3-10.7,26.2
	c2.5-7.4,7.7-13.9,15.1-17.9c7.9-4.4,16.9-5,25-2.5c-6.4-8.2-17.7-11.1-27.4-6.8c-4.4-10.9-15-18.8-27.5-18.8
	c-16.4,0-29.6,13.2-29.6,29.6c0,4.2,0.9,8.1,2.4,11.7c-0.1-1.2-0.2-2.2-0.2-3.4C76.3,7428.3,89.6,7415,105.9,7415z M377,7431.6
	c-14.7-6.6-31.5-2.3-41.4,9.3c-0.6-0.4-1.3-0.6-2-1c-15.9-6.9-33.7-3.9-46.3,6.4c13.4-5.3,28.9-5.6,43.2,0.7
	c14.3,6.3,24.7,17.9,29.9,31.5c-0.9-14.9-9.2-29-22.9-36.6c10.6-2.8,22.1-2,32.9,2.8c12.9,5.7,22.1,16.2,26.7,28.4
	C401.2,7456.5,393.2,7438.8,377,7431.6z M134.1,7356.1c-11.6,7.1-17.6,19.8-16.7,32.5c2.6-11,9.4-21.1,19.8-27.4
	c10.5-6.4,22.5-7.8,33.5-5.1C159.9,7349.5,145.8,7349,134.1,7356.1z"/>
<path class="st2" d="M367.4,8084.3c21.3-2.2,40.6-15.9,49.1-37.2c9.7-24.5,1.8-51.6-17.6-67.5c11,19.1,13.5,42.9,4.8,65.1
	C396.6,8062.5,383.4,8076.3,367.4,8084.3z M337.8,8014.2c14.5-5.6,23.1-19.9,22.2-34.7c-3.9,12.4-13.2,23-26.3,28.1
	c-10.6,4.1-21.8,3.8-31.6,0.2C311.6,8016.2,325.2,8019,337.8,8014.2z M146.8,8029.3c-12.6,3.1-26.5,0.6-37.6-7.9
	c-9-6.9-14.6-16.6-16.5-27c-2.2,12.4,2.3,25.6,13.1,33.9C118,8037.7,134.6,8037.7,146.8,8029.3z M435.3,8025.6
	c0,45.7-37.2,82.9-82.9,82.9c-5.8,0-11.5-0.6-17-1.8c-2.7-0.5-5.2-1.2-7.8-2c-17.1-5.3-31.7-16.1-42.1-30.2
	c19.3-3.2,35-17,40.9-35.3c-12.1,15.1-30.6,24.8-51.4,24.8c-13,0-25.1-3.8-35.3-10.3c15.2-1.2,29.5-8.3,39.8-19.8
	c-19.6,10.3-43.4,11.9-65.2,2.4c-17.7-7.7-30.8-21.4-38.2-37.7c1.4,21.3,14.4,41.2,35.3,50.4c7.8,3.4,15.9,5,23.9,5
	c9.4,12.9,24.6,21.3,41.9,21.3c2.4,0,4.8-0.2,7.2-0.5c8.7,16.4,22.8,29.7,39.8,37.3c-9.2,15.9-26.4,26.6-46.1,26.6
	c-20.4,0-38.2-11.6-47.1-28.5c12.7-3.7,23.7-12.2,30.5-23.8c-14.9,12.2-35.1,17.8-55.5,13.3c-16.4-3.6-30.2-13-39.4-25.7
	c3.9,14.3,13.8,26.5,27.4,33.1c-11.9,5.8-25.2,9.1-39.2,9.1c-45.8,0-83.6-34.4-89.2-78.7c-0.8,4.5-1.3,9.2-1.3,14
	c0,42.5,34.6,77,77,77c7.3,0,14.3-1.1,21-2.9c3,18,18.7,31.9,37.6,31.9c18.4,0,33.7-13.1,37.3-30.4c9.3,15.5,26.3,25.8,45.6,25.8
	c23.7,0,43.9-15.6,50.8-37.2c7.6,2.3,15.8,3.6,24.2,3.6c45.7,0,82.9-37.2,82.9-82.9c0-15.4-4.2-29.8-11.6-42.1
	C433.1,8003.8,435.3,8014.5,435.3,8025.6z M200.9,8145.9c-15.7,0-29.5-8.4-37.1-21.1c11.5-3.6,21.8-9.7,30.3-17.8
	c3.6,1.7,7.4,3,11.4,3.9c8.5,1.9,17.2,1.4,25-0.8c1.2,5.9,3.4,11.4,6.4,16.4C229.2,8138.2,215.9,8145.9,200.9,8145.9z M416.4,310.1
	c9.7-24.5,1.8-51.6-17.6-67.5c11,19.1,13.5,42.9,4.8,65.1c-7,18-20.3,31.6-36.3,39.6C388.7,345.2,408.1,331.5,416.4,310.1z
	 M337.8,277.3c14.5-5.6,23.1-19.9,22.2-34.7c-3.9,12.4-13.2,23-26.3,28.1c-10.6,4.1-21.8,3.8-31.6,0.2
	C311.6,279.3,325.2,282.1,337.8,277.3z M141.2,391.4c7.3,0,14.3-1.1,21-2.9c3,18,18.7,31.9,37.6,31.9c18.4,0,33.7-13.1,37.3-30.4
	c9.3,15.5,26.3,25.8,45.6,25.8c23.7,0,43.9-15.6,50.8-37.2c7.6,2.3,15.8,3.6,24.2,3.6c45.7,0,82.9-37.2,82.9-82.9
	c0-15.4-4.2-29.8-11.6-42.1c4,9.8,6.2,20.4,6.2,31.6c0,45.7-37.2,82.9-82.9,82.9c-5.8,0-11.5-0.6-17-1.8c-2.7-0.5-5.2-1.2-7.8-2
	c-17.1-5.3-31.7-16.1-42.1-30.2c19.3-3.2,35-17,40.9-35.3c-12.1,15.1-30.6,24.8-51.4,24.8c-13,0-25.1-3.8-35.3-10.3
	c15.2-1.2,29.5-8.3,39.8-19.8c-19.6,10.3-43.4,11.9-65.2,2.4c-17.7-7.7-30.8-21.4-38.2-37.7c1.4,21.3,14.4,41.2,35.3,50.4
	c7.8,3.4,15.9,5,23.9,5c9.4,12.9,24.6,21.3,41.9,21.3c2.4,0,4.8-0.2,7.2-0.5c8.7,16.4,22.8,29.7,39.8,37.3
	c-9.2,15.9-26.4,26.6-46.1,26.6c-20.4,0-38.2-11.6-47.1-28.5c12.7-3.7,23.7-12.2,30.5-23.8c-14.9,12.2-35.1,17.8-55.5,13.3
	c-16.4-3.6-30.2-13-39.4-25.7c3.9,14.3,13.8,26.5,27.4,33.1c-11.9,5.8-25.2,9.1-39.2,9.1c-45.8,0-83.6-34.4-89.2-78.7
	c-0.8,4.5-1.3,9.2-1.3,14C64.2,356.9,98.8,391.4,141.2,391.4z M194.1,370.1c3.6,1.7,7.4,3,11.4,3.9c8.5,1.9,17.2,1.4,25-0.8
	c1.2,5.9,3.4,11.4,6.4,16.4c-7.7,11.6-21,19.3-36,19.3c-15.7,0-29.5-8.4-37.1-21.1C175.4,384.4,185.7,378.2,194.1,370.1z
	 M105.6,291.3c12.4,9.5,29,9.5,41.2,1.1c-12.6,3.1-26.5,0.6-37.6-7.9c-9-6.9-14.6-16.6-16.5-27C90.4,269.9,94.9,283.1,105.6,291.3z
	 M367.4,802.5c21.3-2.2,40.6-15.9,49.1-37.2c9.7-24.5,1.8-51.6-17.6-67.5c11,19.1,13.5,42.9,4.8,65.1
	C396.6,780.7,383.4,794.5,367.4,802.5z M109.2,739.6c-9-6.9-14.6-16.6-16.5-27c-2.2,12.4,2.3,25.6,13.1,33.9
	c12.4,9.5,29,9.5,41.2,1.1C134.1,750.6,120.3,748.2,109.2,739.6z M333.8,725.9c-10.6,4.1-21.8,3.8-31.6,0.2
	c9.5,8.4,23.1,11.3,35.7,6.4c14.5-5.6,23.1-19.9,22.2-34.7C356.2,710.2,346.8,720.8,333.8,725.9z M435.3,743.8
	c0,45.7-37.2,82.9-82.9,82.9c-5.8,0-11.5-0.6-17-1.8c-2.7-0.5-5.2-1.2-7.8-2c-17.1-5.3-31.7-16.1-42.1-30.2
	c19.3-3.2,35-17,40.9-35.3c-12.1,15.1-30.6,24.8-51.4,24.8c-13,0-25.1-3.8-35.3-10.3c15.2-1.2,29.5-8.3,39.8-19.8
	c-19.6,10.3-43.4,11.9-65.2,2.4c-17.7-7.7-30.8-21.4-38.2-37.7c1.4,21.3,14.4,41.2,35.3,50.4c7.8,3.4,15.9,5,23.9,5
	c9.4,12.9,24.6,21.3,41.9,21.3c2.4,0,4.8-0.2,7.2-0.5c8.7,16.4,22.8,29.7,39.8,37.3c-9.2,15.9-26.4,26.6-46.1,26.6
	c-20.4,0-38.2-11.6-47.1-28.5c12.7-3.7,23.7-12.2,30.5-23.8c-14.9,12.2-35.1,17.8-55.5,13.3c-16.4-3.6-30.2-13-39.4-25.7
	c3.9,14.3,13.8,26.5,27.4,33.1c-11.9,5.8-25.2,9.1-39.2,9.1c-45.8,0-83.6-34.4-89.2-78.7c-0.8,4.5-1.3,9.2-1.3,14
	c0,42.5,34.6,77,77,77c7.3,0,14.3-1.1,21-2.9c3,18,18.7,31.9,37.6,31.9c18.4,0,33.7-13.1,37.3-30.4c9.3,15.5,26.3,25.8,45.6,25.8
	c23.7,0,43.9-15.6,50.8-37.2c7.6,2.3,15.8,3.6,24.2,3.6c45.7,0,82.9-37.2,82.9-82.9c0-15.4-4.2-29.8-11.6-42.1
	C433.1,722,435.3,732.7,435.3,743.8z M200.9,864.1c-15.7,0-29.5-8.4-37.1-21.1c11.5-3.6,21.8-9.7,30.3-17.8c3.6,1.7,7.4,3,11.4,3.9
	c8.5,1.9,17.2,1.4,25-0.8c1.2,5.9,3.4,11.4,6.4,16.4C229.2,856.4,215.9,864.1,200.9,864.1z M367.4,1257.6
	c21.3-2.2,40.6-15.9,49.1-37.2c9.7-24.5,1.8-51.6-17.6-67.5c11,19.1,13.5,42.9,4.8,65.1C396.6,1235.8,383.4,1249.6,367.4,1257.6z
	 M337.8,1187.6c14.5-5.6,23.1-19.9,22.2-34.7c-3.9,12.4-13.2,23-26.3,28.1c-10.6,4.1-21.8,3.8-31.6,0.2
	C311.6,1189.5,325.2,1192.4,337.8,1187.6z M435.3,1198.9c0,45.7-37.2,82.9-82.9,82.9c-5.8,0-11.5-0.6-17-1.8c-2.7-0.5-5.2-1.2-7.8-2
	c-17.1-5.3-31.7-16.1-42.1-30.2c19.3-3.2,35-17,40.9-35.3c-12.1,15.1-30.6,24.8-51.4,24.8c-13,0-25.1-3.8-35.3-10.3
	c15.2-1.2,29.5-8.3,39.8-19.8c-19.6,10.3-43.4,11.9-65.2,2.4c-17.7-7.7-30.8-21.4-38.2-37.7c1.4,21.3,14.4,41.2,35.3,50.4
	c7.8,3.4,15.9,5,23.9,5c9.4,12.9,24.6,21.3,41.9,21.3c2.4,0,4.8-0.2,7.2-0.5c8.7,16.4,22.8,29.7,39.8,37.3
	c-9.2,15.9-26.4,26.6-46.1,26.6c-20.4,0-38.2-11.6-47.1-28.5c12.7-3.7,23.7-12.2,30.5-23.8c-14.9,12.2-35.1,17.8-55.5,13.3
	c-16.4-3.6-30.2-13-39.4-25.7c3.9,14.3,13.8,26.5,27.4,33.1c-11.9,5.8-25.2,9.1-39.2,9.1c-45.8,0-83.6-34.4-89.2-78.7
	c-0.8,4.5-1.3,9.2-1.3,14c0,42.5,34.6,77,77,77c7.3,0,14.3-1.1,21-2.9c3,18,18.7,31.9,37.6,31.9c18.4,0,33.7-13.1,37.3-30.4
	c9.3,15.5,26.3,25.8,45.6,25.8c23.7,0,43.9-15.6,50.8-37.2c7.6,2.3,15.8,3.6,24.2,3.6c45.7,0,82.9-37.2,82.9-82.9
	c0-15.4-4.2-29.8-11.6-42.1C433.1,1177.2,435.3,1187.8,435.3,1198.9z M200.9,1319.2c-15.7,0-29.5-8.4-37.1-21.1
	c11.5-3.6,21.8-9.7,30.3-17.8c3.6,1.7,7.4,3,11.4,3.9c8.5,1.9,17.2,1.4,25-0.8c1.2,5.9,3.4,11.4,6.4,16.4
	C229.2,1311.6,215.9,1319.2,200.9,1319.2z M146.8,1202.7c-12.6,3.1-26.5,0.6-37.6-7.9c-9-6.9-14.6-16.6-16.5-27
	c-2.2,12.4,2.3,25.6,13.1,33.9C118,1211,134.6,1211,146.8,1202.7z M146.8,1657.8c-12.6,3.1-26.5,0.6-37.6-7.9
	c-9-6.9-14.6-16.6-16.5-27c-2.2,12.4,2.3,25.6,13.1,33.9C118,1666.1,134.6,1666.1,146.8,1657.8z M435.3,1654
	c0,45.7-37.2,82.9-82.9,82.9c-5.8,0-11.5-0.6-17-1.8c-2.7-0.5-5.2-1.2-7.8-2c-17.1-5.3-31.7-16.1-42.1-30.2
	c19.3-3.2,35-17,40.9-35.3c-12.1,15.1-30.6,24.8-51.4,24.8c-13,0-25.1-3.8-35.3-10.3c15.2-1.2,29.5-8.3,39.8-19.8
	c-19.6,10.3-43.4,11.9-65.2,2.4c-17.7-7.7-30.8-21.4-38.2-37.7c1.4,21.3,14.4,41.2,35.3,50.4c7.8,3.4,15.9,5,23.9,5
	c9.4,12.9,24.6,21.3,41.9,21.3c2.4,0,4.8-0.2,7.2-0.5c8.7,16.4,22.8,29.7,39.8,37.3c-9.2,15.9-26.4,26.6-46.1,26.6
	c-20.4,0-38.2-11.6-47.1-28.5c12.7-3.7,23.7-12.2,30.5-23.8c-14.9,12.2-35.1,17.8-55.5,13.3c-16.4-3.6-30.2-13-39.4-25.7
	c3.9,14.3,13.8,26.5,27.4,33.1c-11.9,5.8-25.2,9.1-39.2,9.1c-45.8,0-83.6-34.4-89.2-78.7c-0.8,4.5-1.3,9.2-1.3,14
	c0,42.5,34.6,77,77,77c7.3,0,14.3-1.1,21-2.9c3,18,18.7,31.9,37.6,31.9c18.4,0,33.7-13.1,37.3-30.4c9.3,15.5,26.3,25.8,45.6,25.8
	c23.7,0,43.9-15.6,50.8-37.2c7.6,2.3,15.8,3.6,24.2,3.6c45.7,0,82.9-37.2,82.9-82.9c0-15.4-4.2-29.8-11.6-42.1
	C433.1,1632.3,435.3,1642.9,435.3,1654z M200.9,1774.3c-15.7,0-29.5-8.4-37.1-21.1c11.5-3.6,21.8-9.7,30.3-17.8
	c3.6,1.7,7.4,3,11.4,3.9c8.5,1.9,17.2,1.4,25-0.8c1.2,5.9,3.4,11.4,6.4,16.4C229.2,1766.7,215.9,1774.3,200.9,1774.3z M367.4,1712.7
	c21.3-2.2,40.6-15.9,49.1-37.2c9.7-24.5,1.8-51.6-17.6-67.5c11,19.1,13.5,42.9,4.8,65.1C396.6,1690.9,383.4,1704.7,367.4,1712.7z
	 M337.8,1642.7c14.5-5.6,23.1-19.9,22.2-34.7c-3.9,12.4-13.2,23-26.3,28.1c-10.6,4.1-21.8,3.8-31.6,0.2
	C311.6,1644.6,325.2,1647.5,337.8,1642.7z M435.3,2109.2c0,45.7-37.2,82.9-82.9,82.9c-5.8,0-11.5-0.6-17-1.8c-2.7-0.5-5.2-1.2-7.8-2
	c-17.1-5.3-31.7-16.1-42.1-30.2c19.3-3.2,35-17,40.9-35.3c-12.1,15.1-30.6,24.8-51.4,24.8c-13,0-25.1-3.8-35.3-10.3
	c15.2-1.2,29.5-8.3,39.8-19.8c-19.6,10.3-43.4,11.9-65.2,2.4c-17.7-7.7-30.8-21.4-38.2-37.7c1.4,21.3,14.4,41.2,35.3,50.4
	c7.8,3.4,15.9,5,23.9,5c9.4,12.9,24.6,21.3,41.9,21.3c2.4,0,4.8-0.2,7.2-0.5c8.7,16.4,22.8,29.7,39.8,37.3
	c-9.2,15.9-26.4,26.6-46.1,26.6c-20.4,0-38.2-11.6-47.1-28.5c12.7-3.7,23.7-12.2,30.5-23.8c-14.9,12.2-35.1,17.8-55.5,13.3
	c-16.4-3.6-30.2-13-39.4-25.7c3.9,14.3,13.8,26.5,27.4,33.1c-11.9,5.8-25.2,9.1-39.2,9.1c-45.8,0-83.6-34.4-89.2-78.7
	c-0.8,4.5-1.3,9.2-1.3,14c0,42.5,34.6,77,77,77c7.3,0,14.3-1.1,21-2.9c3,18,18.7,31.9,37.6,31.9c18.4,0,33.7-13.1,37.3-30.4
	c9.3,15.5,26.3,25.8,45.6,25.8c23.7,0,43.9-15.6,50.8-37.2c7.6,2.3,15.8,3.6,24.2,3.6c45.7,0,82.9-37.2,82.9-82.9
	c0-15.4-4.2-29.8-11.6-42.1C433.1,2087.4,435.3,2098,435.3,2109.2z M200.9,2229.4c-15.7,0-29.5-8.4-37.1-21.1
	c11.5-3.6,21.8-9.7,30.3-17.8c3.6,1.7,7.4,3,11.4,3.9c8.5,1.9,17.2,1.4,25-0.8c1.2,5.9,3.4,11.4,6.4,16.4
	C229.2,2221.8,215.9,2229.4,200.9,2229.4z M337.8,2097.8c14.5-5.6,23.1-19.9,22.2-34.7c-3.9,12.4-13.2,23-26.3,28.1
	c-10.6,4.1-21.8,3.8-31.6,0.2C311.6,2099.7,325.2,2102.6,337.8,2097.8z M367.4,2167.8c21.3-2.2,40.6-15.9,49.1-37.2
	c9.7-24.5,1.8-51.6-17.6-67.5c11,19.1,13.5,42.9,4.8,65.1C396.6,2146,383.4,2159.8,367.4,2167.8z M146.8,2112.9
	c-12.6,3.1-26.5,0.6-37.6-7.9c-9-6.9-14.6-16.6-16.5-27c-2.2,12.4,2.3,25.6,13.1,33.9C118,2121.2,134.6,2121.2,146.8,2112.9z
	 M337.8,2552.9c14.5-5.6,23.1-19.9,22.2-34.7c-3.9,12.4-13.2,23-26.3,28.1c-10.6,4.1-21.8,3.8-31.6,0.2
	C311.6,2554.8,325.2,2557.7,337.8,2552.9z M435.3,2564.3c0,45.7-37.2,82.9-82.9,82.9c-5.8,0-11.5-0.6-17-1.8c-2.7-0.5-5.2-1.2-7.8-2
	c-17.1-5.3-31.7-16.1-42.1-30.2c19.3-3.2,35-17,40.9-35.3c-12.1,15.1-30.6,24.8-51.4,24.8c-13,0-25.1-3.8-35.3-10.3
	c15.2-1.2,29.5-8.3,39.8-19.8c-19.6,10.3-43.4,11.9-65.2,2.4c-17.7-7.7-30.8-21.4-38.2-37.7c1.4,21.3,14.4,41.2,35.3,50.4
	c7.8,3.4,15.9,5,23.9,5c9.4,12.9,24.6,21.3,41.9,21.3c2.4,0,4.8-0.2,7.2-0.5c8.7,16.4,22.8,29.7,39.8,37.3
	c-9.2,15.9-26.4,26.6-46.1,26.6c-20.4,0-38.2-11.6-47.1-28.5c12.7-3.7,23.7-12.2,30.5-23.8c-14.9,12.2-35.1,17.8-55.5,13.3
	c-16.4-3.6-30.2-13-39.4-25.7c3.9,14.3,13.8,26.5,27.4,33.1c-11.9,5.8-25.2,9.1-39.2,9.1c-45.8,0-83.6-34.4-89.2-78.7
	c-0.8,4.5-1.3,9.2-1.3,14c0,42.5,34.6,77,77,77c7.3,0,14.3-1.1,21-2.9c3,18,18.7,31.9,37.6,31.9c18.4,0,33.7-13.1,37.3-30.4
	c9.3,15.5,26.3,25.8,45.6,25.8c23.7,0,43.9-15.6,50.8-37.2c7.6,2.3,15.8,3.6,24.2,3.6c45.7,0,82.9-37.2,82.9-82.9
	c0-15.4-4.2-29.8-11.6-42.1C433.1,2542.5,435.3,2553.2,435.3,2564.3z M200.9,2684.5c-15.7,0-29.5-8.4-37.1-21.1
	c11.5-3.6,21.8-9.7,30.3-17.8c3.6,1.7,7.4,3,11.4,3.9c8.5,1.9,17.2,1.4,25-0.8c1.2,5.9,3.4,11.4,6.4,16.4
	C229.2,2676.9,215.9,2684.5,200.9,2684.5z M146.8,2568c-12.6,3.1-26.5,0.6-37.6-7.9c-9-6.9-14.6-16.6-16.5-27
	c-2.2,12.4,2.3,25.6,13.1,33.9C118,2576.4,134.6,2576.4,146.8,2568z M367.4,2622.9c21.3-2.2,40.6-15.9,49.1-37.2
	c9.7-24.5,1.8-51.6-17.6-67.5c11,19.1,13.5,42.9,4.8,65.1C396.6,2601.2,383.4,2614.9,367.4,2622.9z M367.4,3078
	c21.3-2.2,40.6-15.9,49.1-37.2c9.7-24.5,1.8-51.6-17.6-67.5c11,19.1,13.5,42.9,4.8,65.1C396.6,3056.3,383.4,3070,367.4,3078z
	 M337.8,3008c14.5-5.6,23.1-19.9,22.2-34.7c-3.9,12.4-13.2,23-26.3,28.1c-10.6,4.1-21.8,3.8-31.6,0.2
	C311.6,3010,325.2,3012.8,337.8,3008z M146.8,3023.1c-12.6,3.1-26.5,0.6-37.6-7.9c-9-6.9-14.6-16.6-16.5-27
	c-2.2,12.4,2.3,25.6,13.1,33.9C118,3031.5,134.6,3031.5,146.8,3023.1z M435.3,3019.4c0,45.7-37.2,82.9-82.9,82.9
	c-5.8,0-11.5-0.6-17-1.8c-2.7-0.5-5.2-1.2-7.8-2c-17.1-5.3-31.7-16.1-42.1-30.2c19.3-3.2,35-17,40.9-35.3
	c-12.1,15.1-30.6,24.8-51.4,24.8c-13,0-25.1-3.8-35.3-10.3c15.2-1.2,29.5-8.3,39.8-19.8c-19.6,10.3-43.4,11.9-65.2,2.4
	c-17.7-7.7-30.8-21.4-38.2-37.7c1.4,21.3,14.4,41.2,35.3,50.4c7.8,3.4,15.9,5,23.9,5c9.4,12.9,24.6,21.3,41.9,21.3
	c2.4,0,4.8-0.2,7.2-0.5c8.7,16.4,22.8,29.7,39.8,37.3c-9.2,15.9-26.4,26.6-46.1,26.6c-20.4,0-38.2-11.6-47.1-28.5
	c12.7-3.7,23.7-12.2,30.5-23.8c-14.9,12.2-35.1,17.8-55.5,13.3c-16.4-3.6-30.2-13-39.4-25.7c3.9,14.3,13.8,26.5,27.4,33.1
	c-11.9,5.8-25.2,9.1-39.2,9.1c-45.8,0-83.6-34.4-89.2-78.7c-0.8,4.5-1.3,9.2-1.3,14c0,42.5,34.6,77,77,77c7.3,0,14.3-1.1,21-2.9
	c3,18,18.7,31.9,37.6,31.9c18.4,0,33.7-13.1,37.3-30.4c9.3,15.5,26.3,25.8,45.6,25.8c23.7,0,43.9-15.6,50.8-37.2
	c7.6,2.3,15.8,3.6,24.2,3.6c45.7,0,82.9-37.2,82.9-82.9c0-15.4-4.2-29.8-11.6-42.1C433.1,2997.6,435.3,3008.3,435.3,3019.4z
	 M200.9,3139.6c-15.7,0-29.5-8.4-37.1-21.1c11.5-3.6,21.8-9.7,30.3-17.8c3.6,1.7,7.4,3,11.4,3.9c8.5,1.9,17.2,1.4,25-0.8
	c1.2,5.9,3.4,11.4,6.4,16.4C229.2,3132,215.9,3139.6,200.9,3139.6z M146.8,3478.2c-12.6,3.1-26.5,0.6-37.6-7.9
	c-9-6.9-14.6-16.6-16.5-27c-2.2,12.4,2.3,25.6,13.1,33.9C118,3486.6,134.6,3486.6,146.8,3478.2z M435.3,3474.5
	c0,45.7-37.2,82.9-82.9,82.9c-5.8,0-11.5-0.6-17-1.8c-2.7-0.5-5.2-1.2-7.8-2c-17.1-5.3-31.7-16.1-42.1-30.2
	c19.3-3.2,35-17,40.9-35.3c-12.1,15.1-30.6,24.8-51.4,24.8c-13,0-25.1-3.8-35.3-10.3c15.2-1.2,29.5-8.3,39.8-19.8
	c-19.6,10.3-43.4,11.9-65.2,2.4c-17.7-7.7-30.8-21.4-38.2-37.7c1.4,21.3,14.4,41.2,35.3,50.4c7.8,3.4,15.9,5,23.9,5
	c9.4,12.9,24.6,21.3,41.9,21.3c2.4,0,4.8-0.2,7.2-0.5c8.7,16.4,22.8,29.7,39.8,37.3c-9.2,15.9-26.4,26.6-46.1,26.6
	c-20.4,0-38.2-11.6-47.1-28.5c12.7-3.7,23.7-12.2,30.5-23.8c-14.9,12.2-35.1,17.8-55.5,13.3c-16.4-3.6-30.2-13-39.4-25.7
	c3.9,14.3,13.8,26.5,27.4,33.1c-11.9,5.8-25.2,9.1-39.2,9.1c-45.8,0-83.6-34.4-89.2-78.7c-0.8,4.5-1.3,9.2-1.3,14
	c0,42.5,34.6,77,77,77c7.3,0,14.3-1.1,21-2.9c3,18,18.7,31.9,37.6,31.9c18.4,0,33.7-13.1,37.3-30.4c9.3,15.5,26.3,25.8,45.6,25.8
	c23.7,0,43.9-15.6,50.8-37.2c7.6,2.3,15.8,3.6,24.2,3.6c45.7,0,82.9-37.2,82.9-82.9c0-15.4-4.2-29.8-11.6-42.1
	C433.1,3452.7,435.3,3463.4,435.3,3474.5z M200.9,3594.8c-15.7,0-29.5-8.4-37.1-21.1c11.5-3.6,21.8-9.7,30.3-17.8
	c3.6,1.7,7.4,3,11.4,3.9c8.5,1.9,17.2,1.4,25-0.8c1.2,5.9,3.4,11.4,6.4,16.4C229.2,3587.1,215.9,3594.8,200.9,3594.8z M337.8,3463.1
	c14.5-5.6,23.1-19.9,22.2-34.7c-3.9,12.4-13.2,23-26.3,28.1c-10.6,4.1-21.8,3.8-31.6,0.2C311.6,3465.1,325.2,3467.9,337.8,3463.1z
	 M367.4,3533.2c21.3-2.2,40.6-15.9,49.1-37.2c9.7-24.5,1.8-51.6-17.6-67.5c11,19.1,13.5,42.9,4.8,65.1
	C396.6,3511.4,383.4,3525.2,367.4,3533.2z M435.3,3929.6c0,45.7-37.2,82.9-82.9,82.9c-5.8,0-11.5-0.6-17-1.8c-2.7-0.5-5.2-1.2-7.8-2
	c-17.1-5.3-31.7-16.1-42.1-30.2c19.3-3.2,35-17,40.9-35.3c-12.1,15.1-30.6,24.8-51.4,24.8c-13,0-25.1-3.8-35.3-10.3
	c15.2-1.2,29.5-8.3,39.8-19.8c-19.6,10.3-43.4,11.9-65.2,2.4c-17.7-7.7-30.8-21.4-38.2-37.7c1.4,21.3,14.4,41.2,35.3,50.4
	c7.8,3.4,15.9,5,23.9,5c9.4,12.9,24.6,21.3,41.9,21.3c2.4,0,4.8-0.2,7.2-0.5c8.7,16.4,22.8,29.7,39.8,37.3
	c-9.2,15.9-26.4,26.6-46.1,26.6c-20.4,0-38.2-11.6-47.1-28.5c12.7-3.7,23.7-12.2,30.5-23.8c-14.9,12.2-35.1,17.8-55.5,13.3
	c-16.4-3.6-30.2-13-39.4-25.7c3.9,14.3,13.8,26.5,27.4,33.1c-11.9,5.8-25.2,9.1-39.2,9.1c-45.8,0-83.6-34.4-89.2-78.7
	c-0.8,4.5-1.3,9.2-1.3,14c0,42.5,34.6,77,77,77c7.3,0,14.3-1.1,21-2.9c3,18,18.7,31.9,37.6,31.9c18.4,0,33.7-13.1,37.3-30.4
	c9.3,15.5,26.3,25.8,45.6,25.8c23.7,0,43.9-15.6,50.8-37.2c7.6,2.3,15.8,3.6,24.2,3.6c45.7,0,82.9-37.2,82.9-82.9
	c0-15.4-4.2-29.8-11.6-42.1C433.1,3907.8,435.3,3918.5,435.3,3929.6z M200.9,4049.9c-15.7,0-29.5-8.4-37.1-21.1
	c11.5-3.6,21.8-9.7,30.3-17.8c3.6,1.7,7.4,3,11.4,3.9c8.5,1.9,17.2,1.4,25-0.8c1.2,5.9,3.4,11.4,6.4,16.4
	C229.2,4042.2,215.9,4049.9,200.9,4049.9z M146.8,3933.3c-12.6,3.1-26.5,0.6-37.6-7.9c-9-6.9-14.6-16.6-16.5-27
	c-2.2,12.4,2.3,25.6,13.1,33.9C118,3941.7,134.6,3941.7,146.8,3933.3z M337.8,3918.2c14.5-5.6,23.1-19.9,22.2-34.7
	c-3.9,12.4-13.2,23-26.3,28.1c-10.6,4.1-21.8,3.8-31.6,0.2C311.6,3920.2,325.2,3923,337.8,3918.2z M367.4,3988.3
	c21.3-2.2,40.6-15.9,49.1-37.2c9.7-24.5,1.8-51.6-17.6-67.5c11,19.1,13.5,42.9,4.8,65.1C396.6,3966.5,383.4,3980.3,367.4,3988.3z
	 M367.4,4443.4c21.3-2.2,40.6-15.9,49.1-37.2c9.7-24.5,1.8-51.6-17.6-67.5c11,19.1,13.5,42.9,4.8,65.1
	C396.6,4421.6,383.4,4435.4,367.4,4443.4z M435.3,4384.7c0,45.7-37.2,82.9-82.9,82.9c-5.8,0-11.5-0.6-17-1.8c-2.7-0.5-5.2-1.2-7.8-2
	c-17.1-5.3-31.7-16.1-42.1-30.2c19.3-3.2,35-17,40.9-35.3c-12.1,15.1-30.6,24.8-51.4,24.8c-13,0-25.1-3.8-35.3-10.3
	c15.2-1.2,29.5-8.3,39.8-19.8c-19.6,10.3-43.4,11.9-65.2,2.4c-17.7-7.7-30.8-21.4-38.2-37.7c1.4,21.3,14.4,41.2,35.3,50.4
	c7.8,3.4,15.9,5,23.9,5c9.4,12.9,24.6,21.3,41.9,21.3c2.4,0,4.8-0.2,7.2-0.5c8.7,16.4,22.8,29.7,39.8,37.3
	c-9.2,15.9-26.4,26.6-46.1,26.6c-20.4,0-38.2-11.6-47.1-28.5c12.7-3.7,23.7-12.2,30.5-23.8c-14.9,12.2-35.1,17.8-55.5,13.3
	c-16.4-3.6-30.2-13-39.4-25.7c3.9,14.3,13.8,26.5,27.4,33.1c-11.9,5.8-25.2,9.1-39.2,9.1c-45.8,0-83.6-34.4-89.2-78.7
	c-0.8,4.5-1.3,9.2-1.3,14c0,42.5,34.6,77,77,77c7.3,0,14.3-1.1,21-2.9c3,18,18.7,31.9,37.6,31.9c18.4,0,33.7-13.1,37.3-30.4
	c9.3,15.5,26.3,25.8,45.6,25.8c23.7,0,43.9-15.6,50.8-37.2c7.6,2.3,15.8,3.6,24.2,3.6c45.7,0,82.9-37.2,82.9-82.9
	c0-15.4-4.2-29.8-11.6-42.1C433.1,4362.9,435.3,4373.6,435.3,4384.7z M200.9,4505c-15.7,0-29.5-8.4-37.1-21.1
	c11.5-3.6,21.8-9.7,30.3-17.8c3.6,1.7,7.4,3,11.4,3.9c8.5,1.9,17.2,1.4,25-0.8c1.2,5.9,3.4,11.4,6.4,16.4
	C229.2,4497.3,215.9,4505,200.9,4505z M337.8,4373.3c14.5-5.6,23.1-19.9,22.2-34.7c-3.9,12.4-13.2,23-26.3,28.1
	c-10.6,4.1-21.8,3.8-31.6,0.2C311.6,4375.3,325.2,4378.1,337.8,4373.3z M146.8,4388.4c-12.6,3.1-26.5,0.6-37.6-7.9
	c-9-6.9-14.6-16.6-16.5-27c-2.2,12.4,2.3,25.6,13.1,33.9C118,4396.8,134.6,4396.8,146.8,4388.4z M367.4,4898.5
	c21.3-2.2,40.6-15.9,49.1-37.2c9.7-24.5,1.8-51.6-17.6-67.5c11,19.1,13.5,42.9,4.8,65.1C396.6,4876.7,383.4,4890.5,367.4,4898.5z
	 M146.8,4843.6c-12.6,3.1-26.5,0.6-37.6-7.9c-9-6.9-14.6-16.6-16.5-27c-2.2,12.4,2.3,25.6,13.1,33.9
	C118,4851.9,134.6,4851.9,146.8,4843.6z M337.8,4828.4c14.5-5.6,23.1-19.9,22.2-34.7c-3.9,12.4-13.2,23-26.3,28.1
	c-10.6,4.1-21.8,3.8-31.6,0.2C311.6,4830.4,325.2,4833.2,337.8,4828.4z M435.3,4839.8c0,45.7-37.2,82.9-82.9,82.9
	c-5.8,0-11.5-0.6-17-1.8c-2.7-0.5-5.2-1.2-7.8-2c-17.1-5.3-31.7-16.1-42.1-30.2c19.3-3.2,35-17,40.9-35.3
	c-12.1,15.1-30.6,24.8-51.4,24.8c-13,0-25.1-3.8-35.3-10.3c15.2-1.2,29.5-8.3,39.8-19.8c-19.6,10.3-43.4,11.9-65.2,2.4
	c-17.7-7.7-30.8-21.4-38.2-37.7c1.4,21.3,14.4,41.2,35.3,50.4c7.8,3.4,15.9,5,23.9,5c9.4,12.9,24.6,21.3,41.9,21.3
	c2.4,0,4.8-0.2,7.2-0.5c8.7,16.4,22.8,29.7,39.8,37.3c-9.2,15.9-26.4,26.6-46.1,26.6c-20.4,0-38.2-11.6-47.1-28.5
	c12.7-3.7,23.7-12.2,30.5-23.8c-14.9,12.2-35.1,17.8-55.5,13.3c-16.4-3.6-30.2-13-39.4-25.7c3.9,14.3,13.8,26.5,27.4,33.1
	c-11.9,5.8-25.2,9.1-39.2,9.1c-45.8,0-83.6-34.4-89.2-78.7c-0.8,4.5-1.3,9.2-1.3,14c0,42.5,34.6,77,77,77c7.3,0,14.3-1.1,21-2.9
	c3,18,18.7,31.9,37.6,31.9c18.4,0,33.7-13.1,37.3-30.4c9.3,15.5,26.3,25.8,45.6,25.8c23.7,0,43.9-15.6,50.8-37.2
	c7.6,2.3,15.8,3.6,24.2,3.6c45.7,0,82.9-37.2,82.9-82.9c0-15.4-4.2-29.8-11.6-42.1C433.1,4818,435.3,4828.7,435.3,4839.8z
	 M200.9,4960.1c-15.7,0-29.5-8.4-37.1-21.1c11.5-3.6,21.8-9.7,30.3-17.8c3.6,1.7,7.4,3,11.4,3.9c8.5,1.9,17.2,1.4,25-0.8
	c1.2,5.9,3.4,11.4,6.4,16.4C229.2,4952.4,215.9,4960.1,200.9,4960.1z M367.4,5353.6c21.3-2.2,40.6-15.9,49.1-37.2
	c9.7-24.5,1.8-51.6-17.6-67.5c11,19.1,13.5,42.9,4.8,65.1C396.6,5331.8,383.4,5345.6,367.4,5353.6z M337.8,5283.6
	c14.5-5.6,23.1-19.9,22.2-34.7c-3.9,12.4-13.2,23-26.3,28.1c-10.6,4.1-21.8,3.8-31.6,0.2C311.6,5285.5,325.2,5288.4,337.8,5283.6z
	 M146.8,5298.7c-12.6,3.1-26.5,0.6-37.6-7.9c-9-6.9-14.6-16.6-16.5-27c-2.2,12.4,2.3,25.6,13.1,33.9
	C118,5307,134.6,5307,146.8,5298.7z M435.3,5294.9c0,45.7-37.2,82.9-82.9,82.9c-5.8,0-11.5-0.6-17-1.8c-2.7-0.5-5.2-1.2-7.8-2
	c-17.1-5.3-31.7-16.1-42.1-30.2c19.3-3.2,35-17,40.9-35.3c-12.1,15.1-30.6,24.8-51.4,24.8c-13,0-25.1-3.8-35.3-10.3
	c15.2-1.2,29.5-8.3,39.8-19.8c-19.6,10.3-43.4,11.9-65.2,2.4c-17.7-7.7-30.8-21.4-38.2-37.7c1.4,21.3,14.4,41.2,35.3,50.4
	c7.8,3.4,15.9,5,23.9,5c9.4,12.9,24.6,21.3,41.9,21.3c2.4,0,4.8-0.2,7.2-0.5c8.7,16.4,22.8,29.7,39.8,37.3
	c-9.2,15.9-26.4,26.6-46.1,26.6c-20.4,0-38.2-11.6-47.1-28.5c12.7-3.7,23.7-12.2,30.5-23.8c-14.9,12.2-35.1,17.8-55.5,13.3
	c-16.4-3.6-30.2-13-39.4-25.7c3.9,14.3,13.8,26.5,27.4,33.1c-11.9,5.8-25.2,9.1-39.2,9.1c-45.8,0-83.6-34.4-89.2-78.7
	c-0.8,4.5-1.3,9.2-1.3,14c0,42.5,34.6,77,77,77c7.3,0,14.3-1.1,21-2.9c3,18,18.7,31.9,37.6,31.9c18.4,0,33.7-13.1,37.3-30.4
	c9.3,15.5,26.3,25.8,45.6,25.8c23.7,0,43.9-15.6,50.8-37.2c7.6,2.3,15.8,3.6,24.2,3.6c45.7,0,82.9-37.2,82.9-82.9
	c0-15.4-4.2-29.8-11.6-42.1C433.1,5273.2,435.3,5283.8,435.3,5294.9z M200.9,5415.2c-15.7,0-29.5-8.4-37.1-21.1
	c11.5-3.6,21.8-9.7,30.3-17.8c3.6,1.7,7.4,3,11.4,3.9c8.5,1.9,17.2,1.4,25-0.8c1.2,5.9,3.4,11.4,6.4,16.4
	C229.2,5407.6,215.9,5415.2,200.9,5415.2z M367.4,5808.7c21.3-2.2,40.6-15.9,49.1-37.2c9.7-24.5,1.8-51.6-17.6-67.5
	c11,19.1,13.5,42.9,4.8,65.1C396.6,5786.9,383.4,5800.7,367.4,5808.7z M146.8,5753.8c-12.6,3.1-26.5,0.6-37.6-7.9
	c-9-6.9-14.6-16.6-16.5-27c-2.2,12.4,2.3,25.6,13.1,33.9C118,5762.1,134.6,5762.1,146.8,5753.8z M337.8,5738.7
	c14.5-5.6,23.1-19.9,22.2-34.7c-3.9,12.4-13.2,23-26.3,28.1c-10.6,4.1-21.8,3.8-31.6,0.2C311.6,5740.6,325.2,5743.5,337.8,5738.7z
	 M435.3,5750c0,45.7-37.2,82.9-82.9,82.9c-5.8,0-11.5-0.6-17-1.8c-2.7-0.5-5.2-1.2-7.8-2c-17.1-5.3-31.7-16.1-42.1-30.2
	c19.3-3.2,35-17,40.9-35.3c-12.1,15.1-30.6,24.8-51.4,24.8c-13,0-25.1-3.8-35.3-10.3c15.2-1.2,29.5-8.3,39.8-19.8
	c-19.6,10.3-43.4,11.9-65.2,2.4c-17.7-7.7-30.8-21.4-38.2-37.7c1.4,21.3,14.4,41.2,35.3,50.4c7.8,3.4,15.9,5,23.9,5
	c9.4,12.9,24.6,21.3,41.9,21.3c2.4,0,4.8-0.2,7.2-0.5c8.7,16.4,22.8,29.7,39.8,37.3c-9.2,15.9-26.4,26.6-46.1,26.6
	c-20.4,0-38.2-11.6-47.1-28.5c12.7-3.7,23.7-12.2,30.5-23.8c-14.9,12.2-35.1,17.8-55.5,13.3c-16.4-3.6-30.2-13-39.4-25.7
	c3.9,14.3,13.8,26.5,27.4,33.1c-11.9,5.8-25.2,9.1-39.2,9.1c-45.8,0-83.6-34.4-89.2-78.7c-0.8,4.5-1.3,9.2-1.3,14
	c0,42.5,34.6,77,77,77c7.3,0,14.3-1.1,21-2.9c3,18,18.7,31.9,37.6,31.9c18.4,0,33.7-13.1,37.3-30.4c9.3,15.5,26.3,25.8,45.6,25.8
	c23.7,0,43.9-15.6,50.8-37.2c7.6,2.3,15.8,3.6,24.2,3.6c45.7,0,82.9-37.2,82.9-82.9c0-15.4-4.2-29.8-11.6-42.1
	C433.1,5728.3,435.3,5738.9,435.3,5750z M200.9,5870.3c-15.7,0-29.5-8.4-37.1-21.1c11.5-3.6,21.8-9.7,30.3-17.8
	c3.6,1.7,7.4,3,11.4,3.9c8.5,1.9,17.2,1.4,25-0.8c1.2,5.9,3.4,11.4,6.4,16.4C229.2,5862.7,215.9,5870.3,200.9,5870.3z M435.3,6205.2
	c0,45.7-37.2,82.9-82.9,82.9c-5.8,0-11.5-0.6-17-1.8c-2.7-0.5-5.2-1.2-7.8-2c-17.1-5.3-31.7-16.1-42.1-30.2
	c19.3-3.2,35-17,40.9-35.3c-12.1,15.1-30.6,24.8-51.4,24.8c-13,0-25.1-3.8-35.3-10.3c15.2-1.2,29.5-8.3,39.8-19.8
	c-19.6,10.3-43.4,11.9-65.2,2.4c-17.7-7.7-30.8-21.4-38.2-37.7c1.4,21.3,14.4,41.2,35.3,50.4c7.8,3.4,15.9,5,23.9,5
	c9.4,12.9,24.6,21.3,41.9,21.3c2.4,0,4.8-0.2,7.2-0.5c8.7,16.4,22.8,29.7,39.8,37.3c-9.2,15.9-26.4,26.6-46.1,26.6
	c-20.4,0-38.2-11.6-47.1-28.5c12.7-3.7,23.7-12.2,30.5-23.8c-14.9,12.2-35.1,17.8-55.5,13.3c-16.4-3.6-30.2-13-39.4-25.7
	c3.9,14.3,13.8,26.5,27.4,33.1c-11.9,5.8-25.2,9.1-39.2,9.1c-45.8,0-83.6-34.4-89.2-78.7c-0.8,4.5-1.3,9.2-1.3,14
	c0,42.5,34.6,77,77,77c7.3,0,14.3-1.1,21-2.9c3,18,18.7,31.9,37.6,31.9c18.4,0,33.7-13.1,37.3-30.4c9.3,15.5,26.3,25.8,45.6,25.8
	c23.7,0,43.9-15.6,50.8-37.2c7.6,2.3,15.8,3.6,24.2,3.6c45.7,0,82.9-37.2,82.9-82.9c0-15.4-4.2-29.8-11.6-42.1
	C433.1,6183.4,435.3,6194,435.3,6205.2z M200.9,6325.4c-15.7,0-29.5-8.4-37.1-21.1c11.5-3.6,21.8-9.7,30.3-17.8
	c3.6,1.7,7.4,3,11.4,3.9c8.5,1.9,17.2,1.4,25-0.8c1.2,5.9,3.4,11.4,6.4,16.4C229.2,6317.8,215.9,6325.4,200.9,6325.4z M337.8,6193.8
	c14.5-5.6,23.1-19.9,22.2-34.7c-3.9,12.4-13.2,23-26.3,28.1c-10.6,4.1-21.8,3.8-31.6,0.2C311.6,6195.7,325.2,6198.6,337.8,6193.8z
	 M146.8,6208.9c-12.6,3.1-26.5,0.6-37.6-7.9c-9-6.9-14.6-16.6-16.5-27c-2.2,12.4,2.3,25.6,13.1,33.9
	C118,6217.2,134.6,6217.2,146.8,6208.9z M367.4,6263.8c21.3-2.2,40.6-15.9,49.1-37.2c9.7-24.5,1.8-51.6-17.6-67.5
	c11,19.1,13.5,42.9,4.8,65.1C396.6,6242,383.4,6255.8,367.4,6263.8z M367.4,6718.9c21.3-2.2,40.6-15.9,49.1-37.2
	c9.7-24.5,1.8-51.6-17.6-67.5c11,19.1,13.5,42.9,4.8,65.1C396.6,6697.2,383.4,6710.9,367.4,6718.9z M337.8,6648.9
	c14.5-5.6,23.1-19.9,22.2-34.7c-3.9,12.4-13.2,23-26.3,28.1c-10.6,4.1-21.8,3.8-31.6,0.2C311.6,6650.8,325.2,6653.7,337.8,6648.9z
	 M435.3,6660.3c0,45.7-37.2,82.9-82.9,82.9c-5.8,0-11.5-0.6-17-1.8c-2.7-0.5-5.2-1.2-7.8-2c-17.1-5.3-31.7-16.1-42.1-30.2
	c19.3-3.2,35-17,40.9-35.3c-12.1,15.1-30.6,24.8-51.4,24.8c-13,0-25.1-3.8-35.3-10.3c15.2-1.2,29.5-8.3,39.8-19.8
	c-19.6,10.3-43.4,11.9-65.2,2.4c-17.7-7.7-30.8-21.4-38.2-37.7c1.4,21.3,14.4,41.2,35.3,50.4c7.8,3.4,15.9,5,23.9,5
	c9.4,12.9,24.6,21.3,41.9,21.3c2.4,0,4.8-0.2,7.2-0.5c8.7,16.4,22.8,29.7,39.8,37.3c-9.2,15.9-26.4,26.6-46.1,26.6
	c-20.4,0-38.2-11.6-47.1-28.5c12.7-3.7,23.7-12.2,30.5-23.8c-14.9,12.2-35.1,17.8-55.5,13.3c-16.4-3.6-30.2-13-39.4-25.7
	c3.9,14.3,13.8,26.5,27.4,33.1c-11.9,5.8-25.2,9.1-39.2,9.1c-45.8,0-83.6-34.4-89.2-78.7c-0.8,4.5-1.3,9.2-1.3,14
	c0,42.5,34.6,77,77,77c7.3,0,14.3-1.1,21-2.9c3,18,18.7,31.9,37.6,31.9c18.4,0,33.7-13.1,37.3-30.4c9.3,15.5,26.3,25.8,45.6,25.8
	c23.7,0,43.9-15.6,50.8-37.2c7.6,2.3,15.8,3.6,24.2,3.6c45.7,0,82.9-37.2,82.9-82.9c0-15.4-4.2-29.8-11.6-42.1
	C433.1,6638.5,435.3,6649.2,435.3,6660.3z M200.9,6780.5c-15.7,0-29.5-8.4-37.1-21.1c11.5-3.6,21.8-9.7,30.3-17.8
	c3.6,1.7,7.4,3,11.4,3.9c8.5,1.9,17.2,1.4,25-0.8c1.2,5.9,3.4,11.4,6.4,16.4C229.2,6772.9,215.9,6780.5,200.9,6780.5z M146.8,6664
	c-12.6,3.1-26.5,0.6-37.6-7.9c-9-6.9-14.6-16.6-16.5-27c-2.2,12.4,2.3,25.6,13.1,33.9C118,6672.4,134.6,6672.4,146.8,6664z
	 M146.8,7119.1c-12.6,3.1-26.5,0.6-37.6-7.9c-9-6.9-14.6-16.6-16.5-27c-2.2,12.4,2.3,25.6,13.1,33.9
	C118,7127.5,134.6,7127.5,146.8,7119.1z M367.4,7174c21.3-2.2,40.6-15.9,49.1-37.2c9.7-24.5,1.8-51.6-17.6-67.5
	c11,19.1,13.5,42.9,4.8,65.1C396.6,7152.3,383.4,7166,367.4,7174z M337.8,7104c14.5-5.6,23.1-19.9,22.2-34.7
	c-3.9,12.4-13.2,23-26.3,28.1c-10.6,4.1-21.8,3.8-31.6,0.2C311.6,7106,325.2,7108.8,337.8,7104z M435.3,7115.4
	c0,45.7-37.2,82.9-82.9,82.9c-5.8,0-11.5-0.6-17-1.8c-2.7-0.5-5.2-1.2-7.8-2c-17.1-5.3-31.7-16.1-42.1-30.2
	c19.3-3.2,35-17,40.9-35.3c-12.1,15.1-30.6,24.8-51.4,24.8c-13,0-25.1-3.8-35.3-10.3c15.2-1.2,29.5-8.3,39.8-19.8
	c-19.6,10.3-43.4,11.9-65.2,2.4c-17.7-7.7-30.8-21.4-38.2-37.7c1.4,21.3,14.4,41.2,35.3,50.4c7.8,3.4,15.9,5,23.9,5
	c9.4,12.9,24.6,21.3,41.9,21.3c2.4,0,4.8-0.2,7.2-0.5c8.7,16.4,22.8,29.7,39.8,37.3c-9.2,15.9-26.4,26.6-46.1,26.6
	c-20.4,0-38.2-11.6-47.1-28.5c12.7-3.7,23.7-12.2,30.5-23.8c-14.9,12.2-35.1,17.8-55.5,13.3c-16.4-3.6-30.2-13-39.4-25.7
	c3.9,14.3,13.8,26.5,27.4,33.1c-11.9,5.8-25.2,9.1-39.2,9.1c-45.8,0-83.6-34.4-89.2-78.7c-0.8,4.5-1.3,9.2-1.3,14
	c0,42.5,34.6,77,77,77c7.3,0,14.3-1.1,21-2.9c3,18,18.7,31.9,37.6,31.9c18.4,0,33.7-13.1,37.3-30.4c9.3,15.5,26.3,25.8,45.6,25.8
	c23.7,0,43.9-15.6,50.8-37.2c7.6,2.3,15.8,3.6,24.2,3.6c45.7,0,82.9-37.2,82.9-82.9c0-15.4-4.2-29.8-11.6-42.1
	C433.1,7093.6,435.3,7104.3,435.3,7115.4z M200.9,7235.6c-15.7,0-29.5-8.4-37.1-21.1c11.5-3.6,21.8-9.7,30.3-17.8
	c3.6,1.7,7.4,3,11.4,3.9c8.5,1.9,17.2,1.4,25-0.8c1.2,5.9,3.4,11.4,6.4,16.4C229.2,7228,215.9,7235.6,200.9,7235.6z M367.4,7629.2
	c21.3-2.2,40.6-15.9,49.1-37.2c9.7-24.5,1.8-51.6-17.6-67.5c11,19.1,13.5,42.9,4.8,65.1C396.6,7607.4,383.4,7621.2,367.4,7629.2z
	 M337.8,7559.1c14.5-5.6,23.1-19.9,22.2-34.7c-3.9,12.4-13.2,23-26.3,28.1c-10.6,4.1-21.8,3.8-31.6,0.2
	C311.6,7561.1,325.2,7563.9,337.8,7559.1z M146.8,7574.2c-12.6,3.1-26.5,0.6-37.6-7.9c-9-6.9-14.6-16.6-16.5-27
	c-2.2,12.4,2.3,25.6,13.1,33.9C118,7582.6,134.6,7582.6,146.8,7574.2z M435.3,7570.5c0,45.7-37.2,82.9-82.9,82.9
	c-5.8,0-11.5-0.6-17-1.8c-2.7-0.5-5.2-1.2-7.8-2c-17.1-5.3-31.7-16.1-42.1-30.2c19.3-3.2,35-17,40.9-35.3
	c-12.1,15.1-30.6,24.8-51.4,24.8c-13,0-25.1-3.8-35.3-10.3c15.2-1.2,29.5-8.3,39.8-19.8c-19.6,10.3-43.4,11.9-65.2,2.4
	c-17.7-7.7-30.8-21.4-38.2-37.7c1.4,21.3,14.4,41.2,35.3,50.4c7.8,3.4,15.9,5,23.9,5c9.4,12.9,24.6,21.3,41.9,21.3
	c2.4,0,4.8-0.2,7.2-0.5c8.7,16.4,22.8,29.7,39.8,37.3c-9.2,15.9-26.4,26.6-46.1,26.6c-20.4,0-38.2-11.6-47.1-28.5
	c12.7-3.7,23.7-12.2,30.5-23.8c-14.9,12.2-35.1,17.8-55.5,13.3c-16.4-3.6-30.2-13-39.4-25.7c3.9,14.3,13.8,26.5,27.4,33.1
	c-11.9,5.8-25.2,9.1-39.2,9.1c-45.8,0-83.6-34.4-89.2-78.7c-0.8,4.5-1.3,9.2-1.3,14c0,42.5,34.6,77,77,77c7.3,0,14.3-1.1,21-2.9
	c3,18,18.7,31.9,37.6,31.9c18.4,0,33.7-13.1,37.3-30.4c9.3,15.5,26.3,25.8,45.6,25.8c23.7,0,43.9-15.6,50.8-37.2
	c7.6,2.3,15.8,3.6,24.2,3.6c45.7,0,82.9-37.2,82.9-82.9c0-15.4-4.2-29.8-11.6-42.1C433.1,7548.7,435.3,7559.4,435.3,7570.5z
	 M200.9,7690.8c-15.7,0-29.5-8.4-37.1-21.1c11.5-3.6,21.8-9.7,30.3-17.8c3.6,1.7,7.4,3,11.4,3.9c8.5,1.9,17.2,1.4,25-0.8
	c1.2,5.9,3.4,11.4,6.4,16.4C229.2,7683.1,215.9,7690.8,200.9,7690.8z"/>
</svg>
