<?xml version="1.0" encoding="utf-8"?>
<!-- Generator: Adobe Illustrator 24.0.0, SVG Export Plug-In . SVG Version: 6.00 Build 0)  -->
<svg version="1.1" id="Capa_1" xmlns="http://www.w3.org/2000/svg" xmlns:xlink="http://www.w3.org/1999/xlink" x="0px" y="0px"
	 viewBox="0 0 512 512" style="enable-background:new 0 0 512 512;" xml:space="preserve">
<style type="text/css">
	.st0{fill:#FEF600;}
</style>
<path d="M396.1,330.3H275.2V255h-59.1V139.9h202.5v110.6h-22.5C396.1,250.4,396.1,333,396.1,330.3z"/>
<path class="st0" d="M196.5,122.3v150.4h29.7v58.5h61.2v-91h-58.5v-85.6h84.7v118h31.6v-117h58.5v85.6h-31.5v90.1h31.5v-58.5h29.7
	V122.3H196.5z M109.2,241.1h60.3v-58.5h-57.6v-60.3h28.8V92.5H78.6v120.7h30.6V241.1z M196.5,300.6h-27v-27.9h-30.6v27.9h-32.4v89.2
	H138v29.7h31.5v-59.4h27v59.4h90.1v-30.6H315v30.6h58.1v-61.2H196.5V300.6z"/>
</svg>
