<?xml version="1.0" encoding="utf-8"?>
<!-- Generator: Adobe Illustrator 24.0.0, SVG Export Plug-In . SVG Version: 6.00 Build 0)  -->
<svg version="1.1" id="Capa_1" xmlns="http://www.w3.org/2000/svg" xmlns:xlink="http://www.w3.org/1999/xlink" x="0px" y="0px"
	 viewBox="0 0 512 512" style="enable-background:new 0 0 512 512;" xml:space="preserve">
<style type="text/css">
	.st0{fill:#FEF600;}
	.st1{fill:#020202;}
</style>
<path class="st0" d="M343.2,176.1h-18.8v-29.8H268v31.3h-20.4v14.1l-47,1.6v139.5H232v15.7h155.1V202.7h-43.9V176.1z M412.2,146.3
	v-31.9h-25.1V92.5H175v24h-20.9v29.8h-31.3v59h21.9v29.3h-21.9v20.9h23v21.9h-23v66.9H80v75.2h108.7v-39.7h30.3v19.8h-9.4v19.8h89.8
	v-39.7h24v39.7h63.7v-52.2h-164v-18.8h-37.6v-67.9h-17.8V256h21.9v-21.4h-19.9v-32.4h18.8v-18.8h43.9v-37.1h15.7V127h96.1v19.3h21.9
	v35H408l-1,125.6H432V146.3H412.2z"/>
<path class="st1" d="M332.3,298.3h-43.9l0.2-9.4H268v23.5h20.4V325H337v-14.1h17.2v-21.9h-21.9V298.3z M287.9,213.7h-32.4v41.8h32.4
	V213.7z M333.8,213.7v41.8h32.4v-41.8H333.8z"/>
</svg>
