<?xml version="1.0" encoding="utf-8"?>
<!-- Generator: Adobe Illustrator 24.0.0, SVG Export Plug-In . SVG Version: 6.00 Build 0)  -->
<svg version="1.1" id="Capa_1" xmlns="http://www.w3.org/2000/svg" xmlns:xlink="http://www.w3.org/1999/xlink" x="0px" y="0px"
	 viewBox="0 0 512 512" style="enable-background:new 0 0 512 512;" xml:space="preserve">
<style type="text/css">
	.st0{fill:#E7A52E;}
	.st1{fill:#E28424;}
	.st2{fill:#C85929;}
	.st3{fill:#B94029;}
	.st4{fill:#F6E266;}
	.st5{fill:#FBF4AF;}
	.st6{fill:#EAB14D;}
</style>
<g>
	<path class="st0" d="M309.4,204.8C309.4,204.7,309.4,204.7,309.4,204.8L287,197l-39.2,7.7v17.1l64.2,10.6l11.4-10.6
		C319.7,215.4,314.9,209.6,309.4,204.8z"/>
	<g>
		<path class="st0" d="M309.4,307.3l-29.3-5.6l-32.3,5.6v17.1h16.4c17.2,0,32.8-6.3,44.8-16.8"/>
		<path class="st0" d="M247.8,290.2l46.2,6.7l29.4-6.7c3.1-5.3,5.4-11,7-17.1l-34.4-9.9l-48.2,9.9V290.2z"/>
	</g>
	<path class="st0" d="M330.4,238.9l-21-12.5l-61.6,12.5V256l67.3,12.1l17.5-12.1C332.5,250.1,331.8,244.4,330.4,238.9L330.4,238.9z"
		/>
	<path class="st1" d="M323,256c0-37.7-30.6-68.3-68.3-68.3c-2.3,0-4.6,0.1-6.9,0.3v136.3h6.9C292.4,324.3,323,293.7,323,256z"/>
	<g>
		<path class="st2" d="M309.4,204.7c-12-10.6-27.9-17.1-45.2-17.1h-16.4v17.1H309.4z"/>
		<path class="st2" d="M247.8,238.9h82.6c-1.6-6.1-3.9-11.8-7-17.1h-75.6V238.9z"/>
		<path class="st2" d="M247.8,273.1h82.6c1.4-5.5,2.2-11.2,2.2-17.1h-84.7L247.8,273.1z"/>
		<path class="st2" d="M247.8,307.3h61.6c5.5-4.9,10.3-10.7,14-17.1h-75.6V307.3z"/>
	</g>
	<path class="st3" d="M313.9,290.2h-66.1v17.1h52.1C305.4,302.4,310.1,296.6,313.9,290.2L313.9,290.2z"/>
	<path class="st3" d="M323,256h-75.2v17.1h73.1C322.3,267.6,323,261.9,323,256L323,256z"/>
	<path class="st3" d="M313.9,221.8h-66.1v17.1h73.1C319.3,232.9,316.9,227.1,313.9,221.8L313.9,221.8z"/>
	<path class="st3" d="M254.7,187.7c-2.3,0-4.6,0.1-6.9,0.3v16.7h52.1C287.8,194.1,272,187.7,254.7,187.7z"/>
	<circle class="st4" cx="247.8" cy="256" r="68.3"/>
	<path class="st5" d="M202.4,307.1c3.5,3.1,7.2,5.8,11.2,8.1l18.7-125.8c-4.6,1-9,2.6-13.1,4.5L202.4,307.1z"/>
	<path class="st6" d="M247.8,187.7c-1.2,0-2.5,0-3.7,0.1c36,1.9,64.6,31.7,64.6,68.2s-28.6,66.3-64.6,68.2c1.2,0.1,2.5,0.1,3.7,0.1
		c37.7,0,68.3-30.6,68.3-68.3S285.5,187.7,247.8,187.7L247.8,187.7z"/>
	<circle class="st0" cx="247.8" cy="256" r="55"/>
	<path class="st1" d="M247.8,201c-1.4,0-2.7,0.1-4.1,0.2c28.5,2.1,50.9,25.9,50.9,54.9s-22.5,52.8-50.9,54.9
		c1.4,0.1,2.7,0.2,4.1,0.2c30.4,0,55-24.6,55-55S278.2,201,247.8,201L247.8,201z"/>
	<path class="st6" d="M204.9,290.5c3.2,3.9,6.8,7.4,10.9,10.3l14.5-97c-4.8,1.6-9.3,3.9-13.5,6.7L204.9,290.5z"/>
	<path class="st2" d="M249.5,225.7l10.4,16c0.3,0.4,0.7,0.7,1.2,0.8l18.4,4.9c1.4,0.4,1.9,2.1,1,3.2l-12,14.8
		c-0.3,0.4-0.5,0.9-0.4,1.4l1,19c0.1,1.4-1.4,2.5-2.7,2l-17.8-6.8c-0.5-0.2-1-0.2-1.4,0l-17.8,6.8c-1.4,0.5-2.8-0.5-2.7-2l1-19
		c0-0.5-0.1-1-0.4-1.4l-12-14.8c-0.9-1.1-0.4-2.8,1-3.2l18.4-4.9c0.5-0.1,0.9-0.4,1.2-0.8l10.4-16
		C246.9,224.5,248.7,224.5,249.5,225.7L249.5,225.7z"/>
	<path class="st3" d="M279.4,247.4l-18.4-4.9c-0.5-0.1-0.9-0.4-1.2-0.8l-0.9-1.3c-0.1,10.1-1.6,26.5-8.7,41.4l16,6.1
		c1.4,0.5,2.8-0.5,2.7-2l-1-19c0-0.5,0.1-1,0.4-1.4l12-14.8C281.4,249.5,280.8,247.8,279.4,247.4L279.4,247.4z"/>
</g>
</svg>
